<svg width="50" height="28" viewBox="0 0 50 28" fill="none" xmlns="http://www.w3.org/2000/svg">
<path d="M21.8129 21.6962C27.5862 20.7439 33.7333 17.8093 38.2684 14.133C40.8401 12.0482 43.0061 9.48032 44.9441 6.80145C45.9477 5.41423 46.8782 3.99284 47.7394 2.51259C47.9895 2.08279 48.6706 0.0995539 49.1841 0.101981C50.9114 0.110167 47.1313 6.59594 46.6744 7.26476C44.7425 10.0927 42.6424 12.8657 40.0675 15.1337C35.7483 18.938 30.214 22.2787 24.6014 23.6607C21.3334 24.4654 18.0666 25.3063 14.6526 25.3747C13.2169 25.4035 11.7752 25.2995 10.3582 25.0571C9.35557 24.8856 8.33367 24.6853 7.35928 24.3869C6.63777 24.1659 5.82265 23.5109 5.10666 23.4208C5.4327 24.6677 6.89074 25.6589 7.32393 26.9249C7.83897 28.4302 6.5549 28.119 5.76986 27.4131C4.52046 26.2896 3.46851 24.9667 2.36347 23.7056C1.42179 22.6309 -0.0396479 21.4848 0.989722 20.0781C1.89352 18.8431 3.3073 17.9314 4.4358 16.928C5.19038 16.257 6.48578 14.4045 7.66112 14.6726C11.3341 15.5105 4.23216 19.6633 3.87203 20.1602C4.40105 20.4354 5.10456 20.4627 5.68118 20.6466C6.51513 20.9125 7.30262 21.2955 8.13844 21.5579C9.71444 22.0527 11.3939 22.3873 13.0347 22.5588C15.8802 22.8563 19.0888 22.5465 21.8129 21.6962C21.4191 21.8191 23.9016 21.3516 21.8129 21.6962Z" fill="#222221"/>
</svg>
