<svg width="20" height="21" viewBox="0 0 20 21" fill="none" xmlns="http://www.w3.org/2000/svg">
<path fill-rule="evenodd" clip-rule="evenodd" d="M2.54 0.459595H5.92C7.33 0.459595 8.46 1.60959 8.46 3.02059V6.42959C8.46 7.84959 7.33 8.98959 5.92 8.98959H2.54C1.14 8.98959 0 7.84959 0 6.42959V3.02059C0 1.60959 1.14 0.459595 2.54 0.459595ZM2.54 11.9293H5.92C7.33 11.9293 8.46 13.0703 8.46 14.4903V17.8993C8.46 19.3093 7.33 20.4593 5.92 20.4593H2.54C1.14 20.4593 0 19.3093 0 17.8993V14.4903C0 13.0703 1.14 11.9293 2.54 11.9293ZM17.4601 0.459595H14.0801C12.6701 0.459595 11.5401 1.60959 11.5401 3.02059V6.42959C11.5401 7.84959 12.6701 8.98959 14.0801 8.98959H17.4601C18.8601 8.98959 20.0001 7.84959 20.0001 6.42959V3.02059C20.0001 1.60959 18.8601 0.459595 17.4601 0.459595ZM14.0801 11.9293H17.4601C18.8601 11.9293 20.0001 13.0703 20.0001 14.4903V17.8993C20.0001 19.3093 18.8601 20.4593 17.4601 20.4593H14.0801C12.6701 20.4593 11.5401 19.3093 11.5401 17.8993V14.4903C11.5401 13.0703 12.6701 11.9293 14.0801 11.9293Z" fill="black"/>
</svg>
