<svg width="25" height="25" viewBox="0 0 25 25" fill="none" xmlns="http://www.w3.org/2000/svg">
<path fill-rule="evenodd" clip-rule="evenodd" d="M9.42574 16.8496H14.8119C15.2178 16.8496 15.5545 16.5096 15.5545 16.0996C15.5545 15.6896 15.2178 15.3596 14.8119 15.3596H9.42574C9.0198 15.3596 8.68317 15.6896 8.68317 16.0996C8.68317 16.5096 9.0198 16.8496 9.42574 16.8496ZM12.7723 10.3596H9.42574C9.0198 10.3596 8.68317 10.6996 8.68317 11.1096C8.68317 11.5196 9.0198 11.8496 9.42574 11.8496H12.7723C13.1782 11.8496 13.5149 11.5196 13.5149 11.1096C13.5149 10.6996 13.1782 10.3596 12.7723 10.3596ZM19.8381 9.48521C20.0708 9.48252 20.3242 9.47959 20.5545 9.47959C20.802 9.47959 21 9.67959 21 9.92959V17.9696C21 20.4496 19.0099 22.4596 16.5545 22.4596H8.67327C6.09901 22.4596 4 20.3496 4 17.7496V6.96959C4 4.48959 6 2.45959 8.46535 2.45959H13.7525C14.0099 2.45959 14.2079 2.66959 14.2079 2.91959V6.13959C14.2079 7.96959 15.703 9.46959 17.5149 9.47959C17.9381 9.47959 18.3112 9.48276 18.6377 9.48553C18.8917 9.48768 19.1175 9.48959 19.3168 9.48959C19.4578 9.48959 19.6405 9.48749 19.8381 9.48521ZM20.1111 8.02559C19.2972 8.02859 18.3378 8.02559 17.6477 8.01859C16.5527 8.01859 15.6507 7.10759 15.6507 6.00159V3.36559C15.6507 2.93459 16.1685 2.72059 16.4646 3.03159C17.0004 3.59436 17.7368 4.36794 18.4699 5.13797C19.2009 5.90592 19.9286 6.67034 20.4507 7.21859C20.7398 7.52159 20.5279 8.02459 20.1111 8.02559Z" fill="black"/>
</svg>
