<svg width="31" height="30" viewBox="0 0 31 30" fill="none" xmlns="http://www.w3.org/2000/svg">
<path d="M26.4095 19.0889C26.5801 20.5378 26.7417 21.8715 26.891 23.2065C26.9165 23.4341 26.878 23.6681 26.8941 23.8974C26.9511 24.7018 26.5045 25.1537 25.8181 25.4167C24.1709 26.0482 22.5323 26.7067 20.8636 27.2767C19.0361 27.9007 17.1824 28.4499 15.3308 29.0004C15.01 29.0895 14.6715 29.0938 14.3484 29.0126C11.1119 28.1715 7.9179 27.1978 4.83567 25.8853C4.34663 25.6963 3.87276 25.47 3.41822 25.2086C3.16919 25.0301 2.97291 24.7877 2.85014 24.507C2.74701 24.2925 2.75406 24.0135 2.75357 23.763C2.74975 22.1415 2.74602 20.5198 2.77099 18.8986C2.7862 18.776 2.76246 18.6517 2.70302 18.5434C2.6436 18.4352 2.55152 18.3485 2.43996 18.2954C2.07292 18.0898 1.72427 17.8529 1.39777 17.5874C0.730397 17.0243 0.631675 16.3583 1.10141 15.6216C1.29309 15.3455 1.51108 15.0885 1.7523 14.8543C2.37587 14.2021 3.00974 13.5608 3.66038 12.8939C2.93134 12.2404 2.24197 11.624 1.55454 11.0055C1.35969 10.8447 1.17553 10.6715 1.00322 10.4868C0.537919 9.94199 0.59934 9.40382 1.16937 8.9619C1.46866 8.72993 1.78467 8.51886 2.0879 8.29255C4.43127 6.54075 6.7695 4.78219 9.11927 3.03898C9.58064 2.70754 10.0593 2.4008 10.5532 2.12016C11.1456 1.77165 11.7047 1.82914 12.2384 2.28594C12.8942 2.84723 13.5709 3.38393 14.2422 3.92676C14.4204 4.07087 14.6114 4.1986 14.8361 4.36228C15.1359 4.02225 15.4229 3.69319 15.7138 3.36767C16.2891 2.72397 16.8657 2.08122 17.4435 1.43941C17.9849 0.837257 18.3503 0.717484 19.0536 1.08951C20.3346 1.76722 21.622 2.44484 22.84 3.22617C25.0887 4.6686 27.2896 6.18544 29.5094 7.67292C29.6316 7.75519 29.7485 7.84536 29.8589 7.9429C30.401 8.4205 30.4619 8.92103 29.995 9.48762C29.2445 10.4001 28.4343 11.256 27.445 11.9217C27.377 11.9675 27.3166 12.0246 27.2052 12.1149C27.8843 12.8297 28.5447 13.5292 29.2111 14.2234C29.4449 14.4663 29.7074 14.6819 29.9294 14.9342C30.5155 15.6003 30.5063 16.2562 29.9086 16.908C29.4483 17.4307 28.8848 17.8523 28.2535 18.1465C27.6048 18.4391 26.983 18.7936 26.4095 19.0889ZM24.7812 12.4128C24.5204 12.257 24.3475 12.1505 24.1715 12.0492C22.0047 10.8013 19.8415 9.54717 17.6682 8.311C16.9019 7.87523 16.0982 7.50458 15.3345 7.0645C14.9231 6.82737 14.6157 6.90535 14.2445 7.15062C11.9828 8.64743 9.7086 10.1255 7.43624 11.6055C6.86054 11.9806 6.27623 12.3424 5.64934 12.7398C5.8012 12.8382 5.8839 12.9008 5.9746 12.949C8.68853 14.3791 11.4111 15.7928 14.1116 17.2474C14.7133 17.5715 15.2177 17.6549 15.7542 17.1784C15.9066 17.0664 16.0719 16.9729 16.2464 16.8999C18.7583 15.5826 21.2705 14.2657 23.7828 12.9495C24.0938 12.7864 24.4015 12.6171 24.7812 12.4128ZM15.8167 5.58282C19.2871 7.43678 22.5205 9.525 26.0071 11.1374L28.1988 8.92223C28.1256 8.84443 28.0475 8.7715 27.965 8.70381C25.9068 7.31922 23.8581 5.91998 21.7831 4.56148C20.9056 3.98702 19.9726 3.49716 19.0633 2.97216C18.7803 2.80862 18.5396 2.81218 18.2845 3.07997C17.4874 3.91521 16.6655 4.72568 15.8167 5.58282ZM4.21836 19.4098C4.36875 21.011 4.50625 22.4537 4.63767 23.897C4.64074 24.0024 4.67858 24.104 4.74535 24.1858C4.81214 24.2674 4.90412 24.3247 5.00685 24.3485C5.18654 24.4065 5.35844 24.4875 5.53602 24.5539C8.15727 25.5343 10.8577 26.2509 13.5625 26.9514C13.718 26.9782 13.8749 26.9944 14.0324 26.9996V20.6098C13.6263 21.0557 13.321 21.4316 12.9731 21.7635C12.6217 22.1246 12.2324 22.4467 11.8121 22.7244C11.2492 23.0655 10.6221 23.1275 10.0154 22.7842C8.42376 21.8839 6.83421 20.9795 5.24669 20.0713C4.94001 19.896 4.65167 19.6902 4.21836 19.4098ZM25.1196 19.779C24.8071 19.9187 24.653 19.9794 24.5061 20.0544C22.9538 20.8466 21.3927 21.6238 19.8558 22.4447C19.3225 22.7295 18.8477 22.7334 18.3863 22.3822C17.6338 21.8094 16.902 21.2102 16.1621 20.621C16.0084 20.4986 15.8583 20.3719 15.6771 20.223C15.7983 22.5585 15.9156 24.8171 16.0341 27.1061C16.1867 27.066 16.3295 27.038 16.4649 26.9912C17.3376 26.6891 18.2142 26.3966 19.0797 26.0747C20.8696 25.4089 22.6533 24.7275 24.4388 24.0499C24.6747 23.9604 24.8941 23.8766 24.9089 23.5442C24.9631 22.328 25.0428 21.1132 25.1196 19.778V19.779ZM2.33342 16.4446L11.1564 21.3714L13.7557 18.9472L4.60294 13.7147L2.33342 16.4446ZM16.5989 18.6358C17.3705 19.2351 18.0971 19.7739 18.7922 20.3503C19.1436 20.6415 19.433 20.6919 19.8569 20.466C22.4341 19.0926 25.0272 17.749 27.614 16.3934C27.7938 16.2992 27.9646 16.188 28.126 16.0927L26.0708 13.3049L16.5989 18.6358ZM11.0997 3.73157C8.19443 5.51599 5.66031 7.75757 2.98761 9.61399L5.05506 11.7734L13.6381 5.9695L11.0997 3.73157Z" fill="black"/>
</svg>
