<svg width="25" height="25" viewBox="0 0 25 25" fill="none" xmlns="http://www.w3.org/2000/svg">
<path fill-rule="evenodd" clip-rule="evenodd" d="M21.3067 8.08309L20.6842 7.003C20.1577 6.08907 18.9907 5.77379 18.0755 6.29819V6.29819C17.6399 6.55482 17.1201 6.62763 16.6307 6.50056C16.1413 6.37349 15.7226 6.05699 15.4668 5.62084C15.3023 5.34362 15.2139 5.02787 15.2105 4.70551V4.70551C15.2254 4.18869 15.0304 3.68787 14.67 3.31714C14.3096 2.94641 13.8145 2.73734 13.2975 2.73755H12.0435C11.537 2.73754 11.0513 2.93939 10.694 3.29842C10.3367 3.65745 10.1372 4.14407 10.1396 4.65059V4.65059C10.1246 5.6964 9.27248 6.53628 8.22657 6.53618C7.90421 6.53283 7.58846 6.44442 7.31123 6.27988V6.27988C6.39606 5.75549 5.22911 6.07077 4.70254 6.98469L4.03435 8.08309C3.50841 8.99587 3.8194 10.1621 4.73 10.6918V10.6918C5.3219 11.0335 5.68653 11.6651 5.68653 12.3485C5.68653 13.032 5.3219 13.6636 4.73 14.0053V14.0053C3.82056 14.5314 3.50923 15.6948 4.03435 16.6048V16.6048L4.66593 17.6941C4.91265 18.1393 5.3266 18.4678 5.81619 18.6069C6.30578 18.7461 6.83064 18.6844 7.27462 18.4355V18.4355C7.71108 18.1808 8.23119 18.111 8.71934 18.2417C9.20749 18.3723 9.62324 18.6925 9.87416 19.1311C10.0387 19.4084 10.1271 19.7241 10.1305 20.0465V20.0465C10.1305 21.103 10.987 21.9595 12.0435 21.9595H13.2975C14.3505 21.9595 15.2055 21.1086 15.2105 20.0556V20.0556C15.2081 19.5475 15.4089 19.0595 15.7682 18.7002C16.1275 18.3409 16.6155 18.1401 17.1236 18.1426C17.4452 18.1512 17.7596 18.2392 18.0389 18.3989V18.3989C18.9517 18.9248 20.1179 18.6138 20.6476 17.7032V17.7032L21.3067 16.6048C21.5618 16.167 21.6318 15.6455 21.5012 15.1558C21.3706 14.6662 21.0502 14.2488 20.611 13.9961V13.9961C20.1718 13.7434 19.8514 13.3261 19.7208 12.8364C19.5902 12.3468 19.6603 11.8253 19.9154 11.3874C20.0812 11.0978 20.3214 10.8577 20.611 10.6918V10.6918C21.5161 10.1624 21.8264 9.00297 21.3067 8.09224V8.09224V8.08309Z" stroke="white" stroke-width="1.5" stroke-linecap="round" stroke-linejoin="round"/>
<circle cx="12.675" cy="12.3486" r="2.63616" stroke="white" stroke-width="1.5" stroke-linecap="round" stroke-linejoin="round"/>
</svg>
