<svg width="1134" height="128" viewBox="0 0 1134 128" fill="none" xmlns="http://www.w3.org/2000/svg">
<g filter="url(#filter0_i_1284_1319)">
<rect y="25" width="1083" height="14" rx="7" fill="#F0F2F5"/>
</g>
<rect y="25" width="351" height="14" rx="7" fill="url(#paint0_linear_1284_1319)"/>
<rect x="320" width="62" height="62" rx="31" fill="#1A5A0F"/>
<path d="M347.72 38.7C346.6 38.7 345.6 38.42 344.72 37.86C343.84 37.2867 343.147 36.46 342.64 35.38C342.133 34.2867 341.88 32.9933 341.88 31.5C341.88 30.0067 342.133 28.72 342.64 27.64C343.147 26.5467 343.84 25.72 344.72 25.16C345.6 24.5867 346.6 24.3 347.72 24.3C348.84 24.3 349.84 24.5867 350.72 25.16C351.613 25.72 352.313 26.5467 352.82 27.64C353.327 28.72 353.58 30.0067 353.58 31.5C353.58 32.9933 353.327 34.2867 352.82 35.38C352.313 36.46 351.613 37.2867 350.72 37.86C349.84 38.42 348.84 38.7 347.72 38.7ZM347.72 36.44C348.72 36.44 349.507 36.0267 350.08 35.2C350.667 34.3733 350.96 33.14 350.96 31.5C350.96 29.86 350.667 28.6267 350.08 27.8C349.507 26.9733 348.72 26.56 347.72 26.56C346.733 26.56 345.947 26.9733 345.36 27.8C344.787 28.6267 344.5 29.86 344.5 31.5C344.5 33.14 344.787 34.3733 345.36 35.2C345.947 36.0267 346.733 36.44 347.72 36.44ZM359.079 24.5V38.5H356.479V26.68H353.519V24.5H359.079Z" fill="white"/>
<path d="M352.5 77C352.5 76.1716 351.828 75.5 351 75.5C350.172 75.5 349.5 76.1716 349.5 77H352.5ZM349.5 77V101H352.5V77H349.5Z" fill="#1A5A0F"/>
<path d="M288.904 122.256V124H280.504V112.8H288.68V114.544H282.584V117.456H287.992V119.168H282.584V122.256H288.904ZM301.815 115.36C302.892 115.36 303.745 115.675 304.375 116.304C305.004 116.923 305.319 117.856 305.319 119.104V124H303.319V119.36C303.319 118.613 303.153 118.053 302.823 117.68C302.492 117.296 302.017 117.104 301.399 117.104C300.727 117.104 300.188 117.328 299.783 117.776C299.377 118.213 299.175 118.843 299.175 119.664V124H297.175V119.36C297.175 118.613 297.009 118.053 296.679 117.68C296.348 117.296 295.873 117.104 295.255 117.104C294.572 117.104 294.028 117.323 293.623 117.76C293.228 118.197 293.031 118.832 293.031 119.664V124H291.031V115.456H292.935V116.544C293.255 116.16 293.655 115.867 294.135 115.664C294.615 115.461 295.148 115.36 295.735 115.36C296.375 115.36 296.94 115.483 297.431 115.728C297.932 115.963 298.327 116.315 298.615 116.784C298.967 116.336 299.42 115.989 299.975 115.744C300.529 115.488 301.143 115.36 301.815 115.36ZM312.611 115.36C313.443 115.36 314.184 115.541 314.835 115.904C315.496 116.267 316.013 116.779 316.387 117.44C316.76 118.101 316.947 118.864 316.947 119.728C316.947 120.592 316.76 121.36 316.387 122.032C316.013 122.693 315.496 123.205 314.835 123.568C314.184 123.931 313.443 124.112 312.611 124.112C311.459 124.112 310.547 123.728 309.875 122.96V127.104H307.875V115.456H309.779V116.576C310.109 116.171 310.515 115.867 310.995 115.664C311.485 115.461 312.024 115.36 312.611 115.36ZM312.387 122.4C313.123 122.4 313.725 122.155 314.195 121.664C314.675 121.173 314.915 120.528 314.915 119.728C314.915 118.928 314.675 118.283 314.195 117.792C313.725 117.301 313.123 117.056 312.387 117.056C311.907 117.056 311.475 117.168 311.091 117.392C310.707 117.605 310.403 117.915 310.179 118.32C309.955 118.725 309.843 119.195 309.843 119.728C309.843 120.261 309.955 120.731 310.179 121.136C310.403 121.541 310.707 121.856 311.091 122.08C311.475 122.293 311.907 122.4 312.387 122.4ZM318.843 112.128H320.843V124H318.843V112.128ZM327.308 124.112C326.444 124.112 325.666 123.925 324.972 123.552C324.279 123.179 323.735 122.661 323.34 122C322.956 121.328 322.764 120.571 322.764 119.728C322.764 118.885 322.956 118.133 323.34 117.472C323.735 116.811 324.279 116.293 324.972 115.92C325.666 115.547 326.444 115.36 327.308 115.36C328.183 115.36 328.967 115.547 329.66 115.92C330.354 116.293 330.892 116.811 331.276 117.472C331.671 118.133 331.868 118.885 331.868 119.728C331.868 120.571 331.671 121.328 331.276 122C330.892 122.661 330.354 123.179 329.66 123.552C328.967 123.925 328.183 124.112 327.308 124.112ZM327.308 122.4C328.044 122.4 328.652 122.155 329.132 121.664C329.612 121.173 329.852 120.528 329.852 119.728C329.852 118.928 329.612 118.283 329.132 117.792C328.652 117.301 328.044 117.056 327.308 117.056C326.572 117.056 325.964 117.301 325.484 117.792C325.015 118.283 324.78 118.928 324.78 119.728C324.78 120.528 325.015 121.173 325.484 121.664C325.964 122.155 326.572 122.4 327.308 122.4ZM341.546 115.456L337.546 124.688C337.173 125.616 336.72 126.267 336.186 126.64C335.653 127.024 335.008 127.216 334.25 127.216C333.824 127.216 333.402 127.147 332.986 127.008C332.57 126.869 332.229 126.677 331.962 126.432L332.762 124.96C332.954 125.141 333.178 125.285 333.434 125.392C333.701 125.499 333.968 125.552 334.234 125.552C334.586 125.552 334.874 125.461 335.098 125.28C335.333 125.099 335.546 124.795 335.738 124.368L335.882 124.032L332.154 115.456H334.234L336.922 121.776L339.626 115.456H341.546ZM350.594 119.776C350.594 119.915 350.583 120.112 350.562 120.368H343.858C343.975 120.997 344.279 121.499 344.77 121.872C345.271 122.235 345.89 122.416 346.626 122.416C347.565 122.416 348.338 122.107 348.946 121.488L350.018 122.72C349.634 123.179 349.149 123.525 348.562 123.76C347.975 123.995 347.314 124.112 346.578 124.112C345.639 124.112 344.813 123.925 344.098 123.552C343.383 123.179 342.829 122.661 342.434 122C342.05 121.328 341.858 120.571 341.858 119.728C341.858 118.896 342.045 118.149 342.418 117.488C342.802 116.816 343.33 116.293 344.002 115.92C344.674 115.547 345.431 115.36 346.274 115.36C347.106 115.36 347.847 115.547 348.498 115.92C349.159 116.283 349.671 116.8 350.034 117.472C350.407 118.133 350.594 118.901 350.594 119.776ZM346.274 116.96C345.634 116.96 345.09 117.152 344.642 117.536C344.205 117.909 343.938 118.411 343.842 119.04H348.69C348.605 118.421 348.343 117.92 347.906 117.536C347.469 117.152 346.925 116.96 346.274 116.96ZM360.547 119.776C360.547 119.915 360.536 120.112 360.515 120.368H353.811C353.928 120.997 354.232 121.499 354.723 121.872C355.224 122.235 355.843 122.416 356.579 122.416C357.518 122.416 358.291 122.107 358.899 121.488L359.971 122.72C359.587 123.179 359.102 123.525 358.515 123.76C357.928 123.995 357.267 124.112 356.531 124.112C355.592 124.112 354.766 123.925 354.051 123.552C353.336 123.179 352.782 122.661 352.387 122C352.003 121.328 351.811 120.571 351.811 119.728C351.811 118.896 351.998 118.149 352.371 117.488C352.755 116.816 353.283 116.293 353.955 115.92C354.627 115.547 355.384 115.36 356.227 115.36C357.059 115.36 357.8 115.547 358.451 115.92C359.112 116.283 359.624 116.8 359.987 117.472C360.36 118.133 360.547 118.901 360.547 119.776ZM356.227 116.96C355.587 116.96 355.043 117.152 354.595 117.536C354.158 117.909 353.891 118.411 353.795 119.04H358.643C358.558 118.421 358.296 117.92 357.859 117.536C357.422 117.152 356.878 116.96 356.227 116.96ZM367.082 112.8H371.978C373.173 112.8 374.234 113.035 375.162 113.504C376.09 113.963 376.81 114.619 377.322 115.472C377.834 116.315 378.09 117.291 378.09 118.4C378.09 119.509 377.834 120.491 377.322 121.344C376.81 122.187 376.09 122.843 375.162 123.312C374.234 123.771 373.173 124 371.978 124H367.082V112.8ZM371.882 122.24C372.703 122.24 373.423 122.085 374.042 121.776C374.671 121.456 375.151 121.008 375.482 120.432C375.823 119.845 375.994 119.168 375.994 118.4C375.994 117.632 375.823 116.96 375.482 116.384C375.151 115.797 374.671 115.349 374.042 115.04C373.423 114.72 372.703 114.56 371.882 114.56H369.162V122.24H371.882ZM388.141 119.776C388.141 119.915 388.13 120.112 388.109 120.368H381.405C381.522 120.997 381.826 121.499 382.317 121.872C382.818 122.235 383.437 122.416 384.173 122.416C385.112 122.416 385.885 122.107 386.493 121.488L387.565 122.72C387.181 123.179 386.696 123.525 386.109 123.76C385.522 123.995 384.861 124.112 384.125 124.112C383.186 124.112 382.36 123.925 381.645 123.552C380.93 123.179 380.376 122.661 379.981 122C379.597 121.328 379.405 120.571 379.405 119.728C379.405 118.896 379.592 118.149 379.965 117.488C380.349 116.816 380.877 116.293 381.549 115.92C382.221 115.547 382.978 115.36 383.821 115.36C384.653 115.36 385.394 115.547 386.045 115.92C386.706 116.283 387.218 116.8 387.581 117.472C387.954 118.133 388.141 118.901 388.141 119.776ZM383.821 116.96C383.181 116.96 382.637 117.152 382.189 117.536C381.752 117.909 381.485 118.411 381.389 119.04H386.237C386.152 118.421 385.89 117.92 385.453 117.536C385.016 117.152 384.472 116.96 383.821 116.96ZM395.198 123.536C394.963 123.728 394.675 123.872 394.334 123.968C394.003 124.064 393.651 124.112 393.278 124.112C392.339 124.112 391.614 123.867 391.102 123.376C390.59 122.885 390.334 122.171 390.334 121.232V117.12H388.926V115.52H390.334V113.568H392.334V115.52H394.622V117.12H392.334V121.184C392.334 121.6 392.435 121.92 392.638 122.144C392.841 122.357 393.134 122.464 393.518 122.464C393.966 122.464 394.339 122.347 394.638 122.112L395.198 123.536ZM400.107 115.36C401.366 115.36 402.326 115.664 402.987 116.272C403.659 116.869 403.995 117.776 403.995 118.992V124H402.107V122.96C401.862 123.333 401.51 123.621 401.051 123.824C400.603 124.016 400.059 124.112 399.419 124.112C398.779 124.112 398.219 124.005 397.739 123.792C397.259 123.568 396.886 123.264 396.619 122.88C396.363 122.485 396.235 122.043 396.235 121.552C396.235 120.784 396.518 120.171 397.083 119.712C397.659 119.243 398.561 119.008 399.787 119.008H401.995V118.88C401.995 118.283 401.814 117.824 401.451 117.504C401.099 117.184 400.571 117.024 399.867 117.024C399.387 117.024 398.913 117.099 398.443 117.248C397.985 117.397 397.595 117.605 397.275 117.872L396.491 116.416C396.939 116.075 397.478 115.813 398.107 115.632C398.737 115.451 399.403 115.36 400.107 115.36ZM399.835 122.656C400.337 122.656 400.779 122.544 401.163 122.32C401.558 122.085 401.835 121.755 401.995 121.328V120.336H399.931C398.779 120.336 398.203 120.715 398.203 121.472C398.203 121.835 398.347 122.123 398.635 122.336C398.923 122.549 399.323 122.656 399.835 122.656ZM406.562 115.456H408.562V124H406.562V115.456ZM407.57 114.048C407.207 114.048 406.903 113.936 406.658 113.712C406.413 113.477 406.29 113.189 406.29 112.848C406.29 112.507 406.413 112.224 406.658 112C406.903 111.765 407.207 111.648 407.57 111.648C407.933 111.648 408.237 111.76 408.482 111.984C408.727 112.197 408.85 112.469 408.85 112.8C408.85 113.152 408.727 113.451 408.482 113.696C408.247 113.931 407.943 114.048 407.57 114.048ZM411.187 112.128H413.187V124H411.187V112.128ZM418.452 124.112C417.759 124.112 417.081 124.021 416.42 123.84C415.759 123.659 415.231 123.429 414.836 123.152L415.604 121.632C415.988 121.888 416.447 122.096 416.98 122.256C417.524 122.405 418.057 122.48 418.58 122.48C419.775 122.48 420.372 122.165 420.372 121.536C420.372 121.237 420.217 121.029 419.908 120.912C419.609 120.795 419.124 120.683 418.452 120.576C417.748 120.469 417.172 120.347 416.724 120.208C416.287 120.069 415.903 119.829 415.572 119.488C415.252 119.136 415.092 118.651 415.092 118.032C415.092 117.221 415.428 116.576 416.1 116.096C416.783 115.605 417.7 115.36 418.852 115.36C419.439 115.36 420.025 115.429 420.612 115.568C421.199 115.696 421.679 115.872 422.052 116.096L421.284 117.616C420.559 117.189 419.743 116.976 418.836 116.976C418.249 116.976 417.801 117.067 417.492 117.248C417.193 117.419 417.044 117.648 417.044 117.936C417.044 118.256 417.204 118.485 417.524 118.624C417.855 118.752 418.361 118.875 419.044 118.992C419.727 119.099 420.287 119.221 420.724 119.36C421.161 119.499 421.535 119.733 421.844 120.064C422.164 120.395 422.324 120.864 422.324 121.472C422.324 122.272 421.977 122.912 421.284 123.392C420.591 123.872 419.647 124.112 418.452 124.112Z" fill="#1A5A0F"/>
<rect x="696" width="62" height="62" rx="31" fill="#E4E4E4"/>
<path d="M721.72 38.7C720.6 38.7 719.6 38.42 718.72 37.86C717.84 37.2867 717.147 36.46 716.64 35.38C716.133 34.2867 715.88 32.9933 715.88 31.5C715.88 30.0067 716.133 28.72 716.64 27.64C717.147 26.5467 717.84 25.72 718.72 25.16C719.6 24.5867 720.6 24.3 721.72 24.3C722.84 24.3 723.84 24.5867 724.72 25.16C725.613 25.72 726.313 26.5467 726.82 27.64C727.327 28.72 727.58 30.0067 727.58 31.5C727.58 32.9933 727.327 34.2867 726.82 35.38C726.313 36.46 725.613 37.2867 724.72 37.86C723.84 38.42 722.84 38.7 721.72 38.7ZM721.72 36.44C722.72 36.44 723.507 36.0267 724.08 35.2C724.667 34.3733 724.96 33.14 724.96 31.5C724.96 29.86 724.667 28.6267 724.08 27.8C723.507 26.9733 722.72 26.56 721.72 26.56C720.733 26.56 719.947 26.9733 719.36 27.8C718.787 28.6267 718.5 29.86 718.5 31.5C718.5 33.14 718.787 34.3733 719.36 35.2C719.947 36.0267 720.733 36.44 721.72 36.44ZM738.379 36.3V38.5H728.059V36.76L733.619 31.48C734.246 30.88 734.666 30.36 734.879 29.92C735.106 29.4667 735.219 29.02 735.219 28.58C735.219 27.9267 734.999 27.4267 734.559 27.08C734.119 26.7333 733.473 26.56 732.619 26.56C731.193 26.56 730.099 27.0467 729.339 28.02L727.519 26.62C728.066 25.8867 728.799 25.32 729.719 24.92C730.653 24.5067 731.693 24.3 732.839 24.3C734.359 24.3 735.573 24.66 736.479 25.38C737.386 26.1 737.839 27.08 737.839 28.32C737.839 29.08 737.679 29.7933 737.359 30.46C737.039 31.1267 736.426 31.8867 735.519 32.74L731.779 36.3H738.379Z" fill="#ADA4A5"/>
<path d="M728.5 77C728.5 76.1716 727.828 75.5 727 75.5C726.172 75.5 725.5 76.1716 725.5 77H728.5ZM725.5 77V101H728.5V77H725.5Z" fill="#ADA4A5"/>
<path d="M674.004 112.8H676.084V122.24H681.94V124H674.004V112.8ZM687.152 124.112C686.288 124.112 685.509 123.925 684.816 123.552C684.123 123.179 683.579 122.661 683.184 122C682.8 121.328 682.608 120.571 682.608 119.728C682.608 118.885 682.8 118.133 683.184 117.472C683.579 116.811 684.123 116.293 684.816 115.92C685.509 115.547 686.288 115.36 687.152 115.36C688.027 115.36 688.811 115.547 689.504 115.92C690.197 116.293 690.736 116.811 691.12 117.472C691.515 118.133 691.712 118.885 691.712 119.728C691.712 120.571 691.515 121.328 691.12 122C690.736 122.661 690.197 123.179 689.504 123.552C688.811 123.925 688.027 124.112 687.152 124.112ZM687.152 122.4C687.888 122.4 688.496 122.155 688.976 121.664C689.456 121.173 689.696 120.528 689.696 119.728C689.696 118.928 689.456 118.283 688.976 117.792C688.496 117.301 687.888 117.056 687.152 117.056C686.416 117.056 685.808 117.301 685.328 117.792C684.859 118.283 684.624 118.928 684.624 119.728C684.624 120.528 684.859 121.173 685.328 121.664C685.808 122.155 686.416 122.4 687.152 122.4ZM702.105 115.456V122.704C702.105 125.712 700.569 127.216 697.497 127.216C696.675 127.216 695.897 127.109 695.161 126.896C694.425 126.693 693.817 126.395 693.337 126L694.233 124.496C694.606 124.805 695.075 125.051 695.641 125.232C696.217 125.424 696.798 125.52 697.385 125.52C698.323 125.52 699.011 125.307 699.449 124.88C699.886 124.453 700.105 123.803 700.105 122.928V122.48C699.763 122.853 699.347 123.136 698.857 123.328C698.366 123.52 697.827 123.616 697.241 123.616C696.43 123.616 695.694 123.445 695.033 123.104C694.382 122.752 693.865 122.261 693.481 121.632C693.107 121.003 692.921 120.283 692.921 119.472C692.921 118.661 693.107 117.947 693.481 117.328C693.865 116.699 694.382 116.213 695.033 115.872C695.694 115.531 696.43 115.36 697.241 115.36C697.859 115.36 698.419 115.461 698.921 115.664C699.433 115.867 699.859 116.176 700.201 116.592V115.456H702.105ZM697.545 121.92C698.302 121.92 698.921 121.696 699.401 121.248C699.891 120.789 700.137 120.197 700.137 119.472C700.137 118.757 699.891 118.176 699.401 117.728C698.921 117.28 698.302 117.056 697.545 117.056C696.777 117.056 696.147 117.28 695.657 117.728C695.177 118.176 694.937 118.757 694.937 119.472C694.937 120.197 695.177 120.789 695.657 121.248C696.147 121.696 696.777 121.92 697.545 121.92ZM704.734 115.456H706.734V124H704.734V115.456ZM705.742 114.048C705.379 114.048 705.075 113.936 704.83 113.712C704.585 113.477 704.462 113.189 704.462 112.848C704.462 112.507 704.585 112.224 704.83 112C705.075 111.765 705.379 111.648 705.742 111.648C706.105 111.648 706.409 111.76 706.654 111.984C706.899 112.197 707.022 112.469 707.022 112.8C707.022 113.152 706.899 113.451 706.654 113.696C706.419 113.931 706.115 114.048 705.742 114.048ZM714.207 115.36C715.284 115.36 716.148 115.675 716.799 116.304C717.45 116.933 717.775 117.867 717.775 119.104V124H715.775V119.36C715.775 118.613 715.599 118.053 715.247 117.68C714.895 117.296 714.394 117.104 713.743 117.104C713.007 117.104 712.426 117.328 711.999 117.776C711.572 118.213 711.359 118.848 711.359 119.68V124H709.359V115.456H711.263V116.56C711.594 116.165 712.01 115.867 712.511 115.664C713.012 115.461 713.578 115.36 714.207 115.36ZM724.926 112.8H729.822C731.017 112.8 732.078 113.035 733.006 113.504C733.934 113.963 734.654 114.619 735.166 115.472C735.678 116.315 735.934 117.291 735.934 118.4C735.934 119.509 735.678 120.491 735.166 121.344C734.654 122.187 733.934 122.843 733.006 123.312C732.078 123.771 731.017 124 729.822 124H724.926V112.8ZM729.726 122.24C730.547 122.24 731.267 122.085 731.886 121.776C732.515 121.456 732.995 121.008 733.326 120.432C733.667 119.845 733.838 119.168 733.838 118.4C733.838 117.632 733.667 116.96 733.326 116.384C732.995 115.797 732.515 115.349 731.886 115.04C731.267 114.72 730.547 114.56 729.726 114.56H727.006V122.24H729.726ZM745.985 119.776C745.985 119.915 745.974 120.112 745.953 120.368H739.249C739.366 120.997 739.67 121.499 740.161 121.872C740.662 122.235 741.281 122.416 742.017 122.416C742.955 122.416 743.729 122.107 744.337 121.488L745.409 122.72C745.025 123.179 744.539 123.525 743.953 123.76C743.366 123.995 742.705 124.112 741.969 124.112C741.03 124.112 740.203 123.925 739.489 123.552C738.774 123.179 738.219 122.661 737.825 122C737.441 121.328 737.249 120.571 737.249 119.728C737.249 118.896 737.435 118.149 737.809 117.488C738.193 116.816 738.721 116.293 739.393 115.92C740.065 115.547 740.822 115.36 741.665 115.36C742.497 115.36 743.238 115.547 743.889 115.92C744.55 116.283 745.062 116.8 745.425 117.472C745.798 118.133 745.985 118.901 745.985 119.776ZM741.665 116.96C741.025 116.96 740.481 117.152 740.033 117.536C739.595 117.909 739.329 118.411 739.233 119.04H744.081C743.995 118.421 743.734 117.92 743.297 117.536C742.859 117.152 742.315 116.96 741.665 116.96ZM753.042 123.536C752.807 123.728 752.519 123.872 752.178 123.968C751.847 124.064 751.495 124.112 751.122 124.112C750.183 124.112 749.458 123.867 748.946 123.376C748.434 122.885 748.178 122.171 748.178 121.232V117.12H746.77V115.52H748.178V113.568H750.178V115.52H752.466V117.12H750.178V121.184C750.178 121.6 750.279 121.92 750.482 122.144C750.684 122.357 750.978 122.464 751.362 122.464C751.81 122.464 752.183 122.347 752.482 122.112L753.042 123.536ZM757.951 115.36C759.21 115.36 760.17 115.664 760.831 116.272C761.503 116.869 761.839 117.776 761.839 118.992V124H759.951V122.96C759.706 123.333 759.354 123.621 758.895 123.824C758.447 124.016 757.903 124.112 757.263 124.112C756.623 124.112 756.063 124.005 755.583 123.792C755.103 123.568 754.73 123.264 754.463 122.88C754.207 122.485 754.079 122.043 754.079 121.552C754.079 120.784 754.362 120.171 754.927 119.712C755.503 119.243 756.404 119.008 757.631 119.008H759.839V118.88C759.839 118.283 759.658 117.824 759.295 117.504C758.943 117.184 758.415 117.024 757.711 117.024C757.231 117.024 756.756 117.099 756.287 117.248C755.828 117.397 755.439 117.605 755.119 117.872L754.335 116.416C754.783 116.075 755.322 115.813 755.951 115.632C756.58 115.451 757.247 115.36 757.951 115.36ZM757.679 122.656C758.18 122.656 758.623 122.544 759.007 122.32C759.402 122.085 759.679 121.755 759.839 121.328V120.336H757.775C756.623 120.336 756.047 120.715 756.047 121.472C756.047 121.835 756.191 122.123 756.479 122.336C756.767 122.549 757.167 122.656 757.679 122.656ZM764.406 115.456H766.406V124H764.406V115.456ZM765.414 114.048C765.051 114.048 764.747 113.936 764.502 113.712C764.256 113.477 764.134 113.189 764.134 112.848C764.134 112.507 764.256 112.224 764.502 112C764.747 111.765 765.051 111.648 765.414 111.648C765.776 111.648 766.08 111.76 766.326 111.984C766.571 112.197 766.694 112.469 766.694 112.8C766.694 113.152 766.571 113.451 766.326 113.696C766.091 113.931 765.787 114.048 765.414 114.048ZM769.031 112.128H771.031V124H769.031V112.128ZM776.296 124.112C775.602 124.112 774.925 124.021 774.264 123.84C773.602 123.659 773.074 123.429 772.68 123.152L773.448 121.632C773.832 121.888 774.29 122.096 774.824 122.256C775.368 122.405 775.901 122.48 776.424 122.48C777.618 122.48 778.216 122.165 778.216 121.536C778.216 121.237 778.061 121.029 777.752 120.912C777.453 120.795 776.968 120.683 776.296 120.576C775.592 120.469 775.016 120.347 774.568 120.208C774.13 120.069 773.746 119.829 773.416 119.488C773.096 119.136 772.936 118.651 772.936 118.032C772.936 117.221 773.272 116.576 773.944 116.096C774.626 115.605 775.544 115.36 776.696 115.36C777.282 115.36 777.869 115.429 778.456 115.568C779.042 115.696 779.522 115.872 779.896 116.096L779.128 117.616C778.402 117.189 777.586 116.976 776.68 116.976C776.093 116.976 775.645 117.067 775.336 117.248C775.037 117.419 774.888 117.648 774.888 117.936C774.888 118.256 775.048 118.485 775.368 118.624C775.698 118.752 776.205 118.875 776.888 118.992C777.57 119.099 778.13 119.221 778.568 119.36C779.005 119.499 779.378 119.733 779.688 120.064C780.008 120.395 780.168 120.864 780.168 121.472C780.168 122.272 779.821 122.912 779.128 123.392C778.434 123.872 777.49 124.112 776.296 124.112Z" fill="#ADA4A5"/>
<rect x="1051.5" width="62" height="62" rx="31" fill="#E4E4E4"/>
<path d="M1077.22 38.7C1076.1 38.7 1075.1 38.42 1074.22 37.86C1073.34 37.2867 1072.65 36.46 1072.14 35.38C1071.63 34.2867 1071.38 32.9933 1071.38 31.5C1071.38 30.0067 1071.63 28.72 1072.14 27.64C1072.65 26.5467 1073.34 25.72 1074.22 25.16C1075.1 24.5867 1076.1 24.3 1077.22 24.3C1078.34 24.3 1079.34 24.5867 1080.22 25.16C1081.11 25.72 1081.81 26.5467 1082.32 27.64C1082.83 28.72 1083.08 30.0067 1083.08 31.5C1083.08 32.9933 1082.83 34.2867 1082.32 35.38C1081.81 36.46 1081.11 37.2867 1080.22 37.86C1079.34 38.42 1078.34 38.7 1077.22 38.7ZM1077.22 36.44C1078.22 36.44 1079.01 36.0267 1079.58 35.2C1080.17 34.3733 1080.46 33.14 1080.46 31.5C1080.46 29.86 1080.17 28.6267 1079.58 27.8C1079.01 26.9733 1078.22 26.56 1077.22 26.56C1076.23 26.56 1075.45 26.9733 1074.86 27.8C1074.29 28.6267 1074 29.86 1074 31.5C1074 33.14 1074.29 34.3733 1074.86 35.2C1075.45 36.0267 1076.23 36.44 1077.22 36.44ZM1089.6 30.28C1090.9 30.44 1091.88 30.88 1092.56 31.6C1093.24 32.32 1093.58 33.22 1093.58 34.3C1093.58 35.1133 1093.38 35.8533 1092.96 36.52C1092.55 37.1867 1091.92 37.72 1091.08 38.12C1090.26 38.5067 1089.24 38.7 1088.04 38.7C1087.04 38.7 1086.08 38.56 1085.14 38.28C1084.22 37.9867 1083.44 37.5867 1082.78 37.08L1083.9 35.06C1084.41 35.4867 1085.02 35.8267 1085.74 36.08C1086.48 36.32 1087.23 36.44 1088 36.44C1088.92 36.44 1089.64 36.2533 1090.16 35.88C1090.7 35.4933 1090.96 34.9733 1090.96 34.32C1090.96 33.6667 1090.71 33.16 1090.2 32.8C1089.71 32.4267 1088.95 32.24 1087.92 32.24H1086.64V30.46L1089.82 26.68H1083.46V24.5H1093V26.24L1089.6 30.28Z" fill="#ADA4A5"/>
<path d="M1084 77C1084 76.1716 1083.33 75.5 1082.5 75.5C1081.67 75.5 1081 76.1716 1081 77H1084ZM1081 77V101H1084V77H1081Z" fill="#ADA4A5"/>
<path d="M1038.11 112.8C1039.08 112.8 1039.93 112.96 1040.64 113.28C1041.37 113.6 1041.92 114.059 1042.3 114.656C1042.69 115.253 1042.88 115.963 1042.88 116.784C1042.88 117.595 1042.69 118.304 1042.3 118.912C1041.92 119.509 1041.37 119.968 1040.64 120.288C1039.93 120.608 1039.08 120.768 1038.11 120.768H1035.58V124H1033.5V112.8H1038.11ZM1038.02 119.008C1038.92 119.008 1039.61 118.816 1040.08 118.432C1040.55 118.048 1040.78 117.499 1040.78 116.784C1040.78 116.069 1040.55 115.52 1040.08 115.136C1039.61 114.752 1038.92 114.56 1038.02 114.56H1035.58V119.008H1038.02ZM1052.77 119.776C1052.77 119.915 1052.76 120.112 1052.73 120.368H1046.03C1046.15 120.997 1046.45 121.499 1046.94 121.872C1047.44 122.235 1048.06 122.416 1048.8 122.416C1049.74 122.416 1050.51 122.107 1051.12 121.488L1052.19 122.72C1051.81 123.179 1051.32 123.525 1050.73 123.76C1050.15 123.995 1049.49 124.112 1048.75 124.112C1047.81 124.112 1046.98 123.925 1046.27 123.552C1045.56 123.179 1045 122.661 1044.61 122C1044.22 121.328 1044.03 120.571 1044.03 119.728C1044.03 118.896 1044.22 118.149 1044.59 117.488C1044.97 116.816 1045.5 116.293 1046.17 115.92C1046.85 115.547 1047.6 115.36 1048.45 115.36C1049.28 115.36 1050.02 115.547 1050.67 115.92C1051.33 116.283 1051.84 116.8 1052.21 117.472C1052.58 118.133 1052.77 118.901 1052.77 119.776ZM1048.45 116.96C1047.81 116.96 1047.26 117.152 1046.81 117.536C1046.38 117.909 1046.11 118.411 1046.01 119.04H1050.86C1050.78 118.421 1050.52 117.92 1050.08 117.536C1049.64 117.152 1049.1 116.96 1048.45 116.96ZM1056.59 116.704C1057.17 115.808 1058.18 115.36 1059.63 115.36V117.264C1059.46 117.232 1059.31 117.216 1059.17 117.216C1058.39 117.216 1057.78 117.445 1057.34 117.904C1056.91 118.352 1056.69 119.003 1056.69 119.856V124H1054.69V115.456H1056.59V116.704ZM1072.11 115.36C1073.19 115.36 1074.04 115.675 1074.67 116.304C1075.3 116.923 1075.62 117.856 1075.62 119.104V124H1073.62V119.36C1073.62 118.613 1073.45 118.053 1073.12 117.68C1072.79 117.296 1072.31 117.104 1071.7 117.104C1071.02 117.104 1070.48 117.328 1070.08 117.776C1069.67 118.213 1069.47 118.843 1069.47 119.664V124H1067.47V119.36C1067.47 118.613 1067.31 118.053 1066.98 117.68C1066.64 117.296 1066.17 117.104 1065.55 117.104C1064.87 117.104 1064.32 117.323 1063.92 117.76C1063.52 118.197 1063.33 118.832 1063.33 119.664V124H1061.33V115.456H1063.23V116.544C1063.55 116.16 1063.95 115.867 1064.43 115.664C1064.91 115.461 1065.44 115.36 1066.03 115.36C1066.67 115.36 1067.24 115.483 1067.73 115.728C1068.23 115.963 1068.62 116.315 1068.91 116.784C1069.26 116.336 1069.72 115.989 1070.27 115.744C1070.83 115.488 1071.44 115.36 1072.11 115.36ZM1078.17 115.456H1080.17V124H1078.17V115.456ZM1079.18 114.048C1078.82 114.048 1078.51 113.936 1078.27 113.712C1078.02 113.477 1077.9 113.189 1077.9 112.848C1077.9 112.507 1078.02 112.224 1078.27 112C1078.51 111.765 1078.82 111.648 1079.18 111.648C1079.54 111.648 1079.85 111.76 1080.09 111.984C1080.34 112.197 1080.46 112.469 1080.46 112.8C1080.46 113.152 1080.34 113.451 1080.09 113.696C1079.86 113.931 1079.55 114.048 1079.18 114.048ZM1085.44 124.112C1084.74 124.112 1084.07 124.021 1083.4 123.84C1082.74 123.659 1082.22 123.429 1081.82 123.152L1082.59 121.632C1082.97 121.888 1083.43 122.096 1083.96 122.256C1084.51 122.405 1085.04 122.48 1085.56 122.48C1086.76 122.48 1087.36 122.165 1087.36 121.536C1087.36 121.237 1087.2 121.029 1086.89 120.912C1086.59 120.795 1086.11 120.683 1085.44 120.576C1084.73 120.469 1084.16 120.347 1083.71 120.208C1083.27 120.069 1082.89 119.829 1082.56 119.488C1082.24 119.136 1082.08 118.651 1082.08 118.032C1082.08 117.221 1082.41 116.576 1083.08 116.096C1083.77 115.605 1084.68 115.36 1085.84 115.36C1086.42 115.36 1087.01 115.429 1087.6 115.568C1088.18 115.696 1088.66 115.872 1089.04 116.096L1088.27 117.616C1087.54 117.189 1086.73 116.976 1085.82 116.976C1085.23 116.976 1084.79 117.067 1084.48 117.248C1084.18 117.419 1084.03 117.648 1084.03 117.936C1084.03 118.256 1084.19 118.485 1084.51 118.624C1084.84 118.752 1085.35 118.875 1086.03 118.992C1086.71 119.099 1087.27 119.221 1087.71 119.36C1088.15 119.499 1088.52 119.733 1088.83 120.064C1089.15 120.395 1089.31 120.864 1089.31 121.472C1089.31 122.272 1088.96 122.912 1088.27 123.392C1087.58 123.872 1086.63 124.112 1085.44 124.112ZM1093.67 124.112C1092.98 124.112 1092.3 124.021 1091.64 123.84C1090.98 123.659 1090.45 123.429 1090.05 123.152L1090.82 121.632C1091.21 121.888 1091.67 122.096 1092.2 122.256C1092.74 122.405 1093.28 122.48 1093.8 122.48C1094.99 122.48 1095.59 122.165 1095.59 121.536C1095.59 121.237 1095.44 121.029 1095.13 120.912C1094.83 120.795 1094.34 120.683 1093.67 120.576C1092.97 120.469 1092.39 120.347 1091.94 120.208C1091.51 120.069 1091.12 119.829 1090.79 119.488C1090.47 119.136 1090.31 118.651 1090.31 118.032C1090.31 117.221 1090.65 116.576 1091.32 116.096C1092 115.605 1092.92 115.36 1094.07 115.36C1094.66 115.36 1095.24 115.429 1095.83 115.568C1096.42 115.696 1096.9 115.872 1097.27 116.096L1096.5 117.616C1095.78 117.189 1094.96 116.976 1094.05 116.976C1093.47 116.976 1093.02 117.067 1092.71 117.248C1092.41 117.419 1092.26 117.648 1092.26 117.936C1092.26 118.256 1092.42 118.485 1092.74 118.624C1093.07 118.752 1093.58 118.875 1094.26 118.992C1094.95 119.099 1095.51 119.221 1095.94 119.36C1096.38 119.499 1096.75 119.733 1097.06 120.064C1097.38 120.395 1097.54 120.864 1097.54 121.472C1097.54 122.272 1097.2 122.912 1096.5 123.392C1095.81 123.872 1094.87 124.112 1093.67 124.112ZM1099.27 115.456H1101.27V124H1099.27V115.456ZM1100.27 114.048C1099.91 114.048 1099.61 113.936 1099.36 113.712C1099.12 113.477 1098.99 113.189 1098.99 112.848C1098.99 112.507 1099.12 112.224 1099.36 112C1099.61 111.765 1099.91 111.648 1100.27 111.648C1100.64 111.648 1100.94 111.76 1101.19 111.984C1101.43 112.197 1101.55 112.469 1101.55 112.8C1101.55 113.152 1101.43 113.451 1101.19 113.696C1100.95 113.931 1100.65 114.048 1100.27 114.048ZM1107.73 124.112C1106.87 124.112 1106.09 123.925 1105.39 123.552C1104.7 123.179 1104.16 122.661 1103.76 122C1103.38 121.328 1103.19 120.571 1103.19 119.728C1103.19 118.885 1103.38 118.133 1103.76 117.472C1104.16 116.811 1104.7 116.293 1105.39 115.92C1106.09 115.547 1106.87 115.36 1107.73 115.36C1108.6 115.36 1109.39 115.547 1110.08 115.92C1110.78 116.293 1111.31 116.811 1111.7 117.472C1112.09 118.133 1112.29 118.885 1112.29 119.728C1112.29 120.571 1112.09 121.328 1111.7 122C1111.31 122.661 1110.78 123.179 1110.08 123.552C1109.39 123.925 1108.6 124.112 1107.73 124.112ZM1107.73 122.4C1108.47 122.4 1109.07 122.155 1109.55 121.664C1110.03 121.173 1110.27 120.528 1110.27 119.728C1110.27 118.928 1110.03 118.283 1109.55 117.792C1109.07 117.301 1108.47 117.056 1107.73 117.056C1106.99 117.056 1106.39 117.301 1105.91 117.792C1105.44 118.283 1105.2 118.928 1105.2 119.728C1105.2 120.528 1105.44 121.173 1105.91 121.664C1106.39 122.155 1106.99 122.4 1107.73 122.4ZM1119.05 115.36C1120.13 115.36 1120.99 115.675 1121.64 116.304C1122.29 116.933 1122.62 117.867 1122.62 119.104V124H1120.62V119.36C1120.62 118.613 1120.44 118.053 1120.09 117.68C1119.74 117.296 1119.24 117.104 1118.59 117.104C1117.85 117.104 1117.27 117.328 1116.84 117.776C1116.42 118.213 1116.2 118.848 1116.2 119.68V124H1114.2V115.456H1116.11V116.56C1116.44 116.165 1116.85 115.867 1117.35 115.664C1117.86 115.461 1118.42 115.36 1119.05 115.36ZM1127.8 124.112C1127.1 124.112 1126.43 124.021 1125.76 123.84C1125.1 123.659 1124.57 123.429 1124.18 123.152L1124.95 121.632C1125.33 121.888 1125.79 122.096 1126.32 122.256C1126.87 122.405 1127.4 122.48 1127.92 122.48C1129.12 122.48 1129.72 122.165 1129.72 121.536C1129.72 121.237 1129.56 121.029 1129.25 120.912C1128.95 120.795 1128.47 120.683 1127.8 120.576C1127.09 120.469 1126.52 120.347 1126.07 120.208C1125.63 120.069 1125.25 119.829 1124.92 119.488C1124.6 119.136 1124.44 118.651 1124.44 118.032C1124.44 117.221 1124.77 116.576 1125.44 116.096C1126.13 115.605 1127.04 115.36 1128.2 115.36C1128.78 115.36 1129.37 115.429 1129.96 115.568C1130.54 115.696 1131.02 115.872 1131.4 116.096L1130.63 117.616C1129.9 117.189 1129.09 116.976 1128.18 116.976C1127.59 116.976 1127.15 117.067 1126.84 117.248C1126.54 117.419 1126.39 117.648 1126.39 117.936C1126.39 118.256 1126.55 118.485 1126.87 118.624C1127.2 118.752 1127.71 118.875 1128.39 118.992C1129.07 119.099 1129.63 119.221 1130.07 119.36C1130.51 119.499 1130.88 119.733 1131.19 120.064C1131.51 120.395 1131.67 120.864 1131.67 121.472C1131.67 122.272 1131.32 122.912 1130.63 123.392C1129.93 123.872 1128.99 124.112 1127.8 124.112Z" fill="#ADA4A5"/>
<defs>
<filter id="filter0_i_1284_1319" x="0" y="25" width="1087" height="18" filterUnits="userSpaceOnUse" color-interpolation-filters="sRGB">
<feFlood flood-opacity="0" result="BackgroundImageFix"/>
<feBlend mode="normal" in="SourceGraphic" in2="BackgroundImageFix" result="shape"/>
<feColorMatrix in="SourceAlpha" type="matrix" values="0 0 0 0 0 0 0 0 0 0 0 0 0 0 0 0 0 0 127 0" result="hardAlpha"/>
<feOffset dx="4" dy="4"/>
<feGaussianBlur stdDeviation="5"/>
<feComposite in2="hardAlpha" operator="arithmetic" k2="-1" k3="1"/>
<feColorMatrix type="matrix" values="0 0 0 0 0 0 0 0 0 0 0 0 0 0 0 0 0 0 0.55 0"/>
<feBlend mode="normal" in2="shape" result="effect1_innerShadow_1284_1319"/>
</filter>
<linearGradient id="paint0_linear_1284_1319" x1="-7.64016e-06" y1="25.0313" x2="1.2784" y2="64.8363" gradientUnits="userSpaceOnUse">
<stop stop-color="#BDE800"/>
<stop offset="0.582188" stop-color="#1A5A0F"/>
<stop offset="0.98228" stop-color="#BDE800"/>
</linearGradient>
</defs>
</svg>
