<svg width="1134" height="128" viewBox="0 0 1134 128" fill="none" xmlns="http://www.w3.org/2000/svg">
<g filter="url(#filter0_i_1309_9053)">
<rect y="25" width="1083" height="14" rx="7" fill="#F0F2F5"/>
</g>
<rect y="25" width="727" height="14" rx="7" fill="url(#paint0_linear_1309_9053)"/>
<rect x="320" width="62" height="62" rx="31" fill="#1A5A0F"/>
<path d="M360.333 24L347.5 36.8333L341.667 31" stroke="white" stroke-width="2" stroke-linecap="round" stroke-linejoin="round"/>
<path d="M352.5 77C352.5 76.1716 351.828 75.5 351 75.5C350.172 75.5 349.5 76.1716 349.5 77H352.5ZM349.5 77V101H352.5V77H349.5Z" fill="#1A5A0F"/>
<path d="M282.424 117.456H287.992V119.168H282.424V117.456ZM282.584 122.256H288.904V124H280.504V112.8H288.68V114.544H282.584V122.256ZM301.815 115.36C302.497 115.36 303.1 115.493 303.623 115.76C304.156 116.027 304.572 116.437 304.871 116.992C305.169 117.536 305.319 118.24 305.319 119.104V124H303.319V119.36C303.319 118.603 303.153 118.037 302.823 117.664C302.492 117.291 302.017 117.104 301.399 117.104C300.961 117.104 300.572 117.2 300.231 117.392C299.9 117.584 299.639 117.867 299.447 118.24C299.265 118.613 299.175 119.088 299.175 119.664V124H297.175V119.36C297.175 118.603 297.009 118.037 296.679 117.664C296.348 117.291 295.873 117.104 295.255 117.104C294.817 117.104 294.428 117.2 294.087 117.392C293.756 117.584 293.495 117.867 293.303 118.24C293.121 118.613 293.031 119.088 293.031 119.664V124H291.031V115.456H292.935V117.728L292.599 117.056C292.887 116.501 293.303 116.08 293.847 115.792C294.401 115.504 295.031 115.36 295.735 115.36C296.535 115.36 297.228 115.557 297.815 115.952C298.412 116.347 298.807 116.944 298.999 117.744L298.215 117.472C298.492 116.832 298.951 116.32 299.591 115.936C300.231 115.552 300.972 115.36 301.815 115.36ZM312.611 124.112C311.917 124.112 311.283 123.952 310.707 123.632C310.141 123.312 309.688 122.832 309.347 122.192C309.016 121.541 308.851 120.72 308.851 119.728C308.851 118.725 309.011 117.904 309.331 117.264C309.661 116.624 310.109 116.149 310.674 115.84C311.24 115.52 311.885 115.36 312.611 115.36C313.453 115.36 314.195 115.541 314.835 115.904C315.485 116.267 315.997 116.773 316.371 117.424C316.755 118.075 316.947 118.843 316.947 119.728C316.947 120.613 316.755 121.387 316.371 122.048C315.997 122.699 315.485 123.205 314.835 123.568C314.195 123.931 313.453 124.112 312.611 124.112ZM307.875 127.104V115.456H309.779V117.472L309.715 119.744L309.875 122.016V127.104H307.875ZM312.387 122.4C312.867 122.4 313.293 122.293 313.667 122.08C314.051 121.867 314.355 121.557 314.579 121.152C314.803 120.747 314.915 120.272 314.915 119.728C314.915 119.173 314.803 118.699 314.579 118.304C314.355 117.899 314.051 117.589 313.667 117.376C313.293 117.163 312.867 117.056 312.387 117.056C311.907 117.056 311.475 117.163 311.091 117.376C310.707 117.589 310.403 117.899 310.179 118.304C309.955 118.699 309.843 119.173 309.843 119.728C309.843 120.272 309.955 120.747 310.179 121.152C310.403 121.557 310.707 121.867 311.091 122.08C311.475 122.293 311.907 122.4 312.387 122.4ZM318.843 124V112.128H320.843V124H318.843ZM327.308 124.112C326.434 124.112 325.655 123.925 324.972 123.552C324.29 123.168 323.751 122.645 323.356 121.984C322.962 121.323 322.764 120.571 322.764 119.728C322.764 118.875 322.962 118.123 323.356 117.472C323.751 116.811 324.29 116.293 324.972 115.92C325.655 115.547 326.434 115.36 327.308 115.36C328.194 115.36 328.978 115.547 329.66 115.92C330.354 116.293 330.892 116.805 331.276 117.456C331.671 118.107 331.868 118.864 331.868 119.728C331.868 120.571 331.671 121.323 331.276 121.984C330.892 122.645 330.354 123.168 329.66 123.552C328.978 123.925 328.194 124.112 327.308 124.112ZM327.308 122.4C327.799 122.4 328.236 122.293 328.62 122.08C329.004 121.867 329.303 121.557 329.516 121.152C329.74 120.747 329.852 120.272 329.852 119.728C329.852 119.173 329.74 118.699 329.516 118.304C329.303 117.899 329.004 117.589 328.62 117.376C328.236 117.163 327.804 117.056 327.324 117.056C326.834 117.056 326.396 117.163 326.012 117.376C325.639 117.589 325.34 117.899 325.116 118.304C324.892 118.699 324.78 119.173 324.78 119.728C324.78 120.272 324.892 120.747 325.116 121.152C325.34 121.557 325.639 121.867 326.012 122.08C326.396 122.293 326.828 122.4 327.308 122.4ZM334.25 127.216C333.834 127.216 333.418 127.147 333.002 127.008C332.586 126.869 332.24 126.677 331.962 126.432L332.762 124.96C332.965 125.141 333.194 125.285 333.45 125.392C333.706 125.499 333.968 125.552 334.234 125.552C334.597 125.552 334.89 125.461 335.114 125.28C335.338 125.099 335.546 124.795 335.738 124.368L336.234 123.248L336.394 123.008L339.626 115.456H341.546L337.546 124.688C337.28 125.328 336.981 125.835 336.65 126.208C336.33 126.581 335.968 126.843 335.562 126.992C335.168 127.141 334.73 127.216 334.25 127.216ZM336.01 124.304L332.154 115.456H334.234L337.37 122.832L336.01 124.304ZM346.578 124.112C345.629 124.112 344.797 123.925 344.082 123.552C343.378 123.168 342.829 122.645 342.434 121.984C342.05 121.323 341.858 120.571 341.858 119.728C341.858 118.875 342.045 118.123 342.418 117.472C342.802 116.811 343.325 116.293 343.986 115.92C344.658 115.547 345.421 115.36 346.274 115.36C347.106 115.36 347.847 115.541 348.498 115.904C349.149 116.267 349.661 116.779 350.034 117.44C350.407 118.101 350.594 118.88 350.594 119.776C350.594 119.861 350.589 119.957 350.578 120.064C350.578 120.171 350.573 120.272 350.562 120.368H343.442V119.04H349.506L348.722 119.456C348.733 118.965 348.631 118.533 348.418 118.16C348.205 117.787 347.911 117.493 347.538 117.28C347.175 117.067 346.754 116.96 346.274 116.96C345.783 116.96 345.351 117.067 344.978 117.28C344.615 117.493 344.327 117.792 344.114 118.176C343.911 118.549 343.81 118.992 343.81 119.504V119.824C343.81 120.336 343.927 120.789 344.162 121.184C344.397 121.579 344.727 121.883 345.154 122.096C345.581 122.309 346.071 122.416 346.626 122.416C347.106 122.416 347.538 122.341 347.922 122.192C348.306 122.043 348.647 121.808 348.946 121.488L350.018 122.72C349.634 123.168 349.149 123.515 348.562 123.76C347.986 123.995 347.325 124.112 346.578 124.112ZM356.531 124.112C355.582 124.112 354.75 123.925 354.035 123.552C353.331 123.168 352.782 122.645 352.387 121.984C352.003 121.323 351.811 120.571 351.811 119.728C351.811 118.875 351.998 118.123 352.371 117.472C352.755 116.811 353.278 116.293 353.939 115.92C354.611 115.547 355.374 115.36 356.227 115.36C357.059 115.36 357.8 115.541 358.451 115.904C359.102 116.267 359.614 116.779 359.987 117.44C360.36 118.101 360.547 118.88 360.547 119.776C360.547 119.861 360.542 119.957 360.531 120.064C360.531 120.171 360.526 120.272 360.515 120.368H353.395V119.04H359.459L358.675 119.456C358.686 118.965 358.584 118.533 358.371 118.16C358.158 117.787 357.864 117.493 357.491 117.28C357.128 117.067 356.707 116.96 356.227 116.96C355.736 116.96 355.304 117.067 354.931 117.28C354.568 117.493 354.28 117.792 354.067 118.176C353.864 118.549 353.763 118.992 353.763 119.504V119.824C353.763 120.336 353.88 120.789 354.115 121.184C354.35 121.579 354.68 121.883 355.107 122.096C355.534 122.309 356.024 122.416 356.579 122.416C357.059 122.416 357.491 122.341 357.875 122.192C358.259 122.043 358.6 121.808 358.899 121.488L359.971 122.72C359.587 123.168 359.102 123.515 358.515 123.76C357.939 123.995 357.278 124.112 356.531 124.112ZM367.082 124V112.8H371.978C373.194 112.8 374.261 113.035 375.178 113.504C376.095 113.973 376.81 114.624 377.322 115.456C377.834 116.288 378.09 117.269 378.09 118.4C378.09 119.52 377.834 120.501 377.322 121.344C376.81 122.176 376.095 122.827 375.178 123.296C374.261 123.765 373.194 124 371.978 124H367.082ZM369.162 122.24H371.882C372.725 122.24 373.45 122.08 374.058 121.76C374.677 121.44 375.151 120.992 375.482 120.416C375.823 119.84 375.994 119.168 375.994 118.4C375.994 117.621 375.823 116.949 375.482 116.384C375.151 115.808 374.677 115.36 374.058 115.04C373.45 114.72 372.725 114.56 371.882 114.56H369.162V122.24ZM384.125 124.112C383.176 124.112 382.344 123.925 381.629 123.552C380.925 123.168 380.376 122.645 379.981 121.984C379.597 121.323 379.405 120.571 379.405 119.728C379.405 118.875 379.592 118.123 379.965 117.472C380.349 116.811 380.872 116.293 381.533 115.92C382.205 115.547 382.968 115.36 383.821 115.36C384.653 115.36 385.394 115.541 386.045 115.904C386.696 116.267 387.208 116.779 387.581 117.44C387.954 118.101 388.141 118.88 388.141 119.776C388.141 119.861 388.136 119.957 388.125 120.064C388.125 120.171 388.12 120.272 388.109 120.368H380.989V119.04H387.053L386.269 119.456C386.28 118.965 386.178 118.533 385.965 118.16C385.752 117.787 385.458 117.493 385.085 117.28C384.722 117.067 384.301 116.96 383.821 116.96C383.33 116.96 382.898 117.067 382.525 117.28C382.162 117.493 381.874 117.792 381.661 118.176C381.458 118.549 381.357 118.992 381.357 119.504V119.824C381.357 120.336 381.474 120.789 381.709 121.184C381.944 121.579 382.274 121.883 382.701 122.096C383.128 122.309 383.618 122.416 384.173 122.416C384.653 122.416 385.085 122.341 385.469 122.192C385.853 122.043 386.194 121.808 386.493 121.488L387.565 122.72C387.181 123.168 386.696 123.515 386.109 123.76C385.533 123.995 384.872 124.112 384.125 124.112ZM393.278 124.112C392.339 124.112 391.614 123.872 391.102 123.392C390.59 122.901 390.334 122.181 390.334 121.232V113.568H392.334V121.184C392.334 121.589 392.435 121.904 392.638 122.128C392.851 122.352 393.145 122.464 393.518 122.464C393.966 122.464 394.339 122.347 394.638 122.112L395.198 123.536C394.963 123.728 394.675 123.872 394.334 123.968C393.993 124.064 393.641 124.112 393.278 124.112ZM388.926 117.12V115.52H394.622V117.12H388.926ZM402.107 124V122.272L401.995 121.904V118.88C401.995 118.293 401.819 117.84 401.467 117.52C401.115 117.189 400.582 117.024 399.867 117.024C399.387 117.024 398.913 117.099 398.443 117.248C397.985 117.397 397.595 117.605 397.275 117.872L396.491 116.416C396.95 116.064 397.494 115.803 398.123 115.632C398.763 115.451 399.425 115.36 400.107 115.36C401.345 115.36 402.299 115.659 402.971 116.256C403.654 116.843 403.995 117.755 403.995 118.992V124H402.107ZM399.419 124.112C398.779 124.112 398.219 124.005 397.739 123.792C397.259 123.568 396.886 123.264 396.619 122.88C396.363 122.485 396.235 122.043 396.235 121.552C396.235 121.072 396.347 120.64 396.571 120.256C396.806 119.872 397.185 119.568 397.707 119.344C398.23 119.12 398.923 119.008 399.787 119.008H402.267V120.336H399.931C399.249 120.336 398.79 120.448 398.555 120.672C398.321 120.885 398.203 121.152 398.203 121.472C398.203 121.835 398.347 122.123 398.635 122.336C398.923 122.549 399.323 122.656 399.835 122.656C400.326 122.656 400.763 122.544 401.147 122.32C401.542 122.096 401.825 121.765 401.995 121.328L402.331 122.528C402.139 123.029 401.793 123.419 401.291 123.696C400.801 123.973 400.177 124.112 399.419 124.112ZM406.562 124V115.456H408.562V124H406.562ZM407.57 114.048C407.197 114.048 406.887 113.931 406.642 113.696C406.407 113.461 406.29 113.179 406.29 112.848C406.29 112.507 406.407 112.224 406.642 112C406.887 111.765 407.197 111.648 407.57 111.648C407.943 111.648 408.247 111.76 408.482 111.984C408.727 112.197 408.85 112.469 408.85 112.8C408.85 113.152 408.733 113.451 408.498 113.696C408.263 113.931 407.954 114.048 407.57 114.048ZM411.187 124V112.128H413.187V124H411.187ZM418.452 124.112C417.737 124.112 417.049 124.021 416.388 123.84C415.737 123.648 415.22 123.419 414.836 123.152L415.604 121.632C415.988 121.877 416.447 122.08 416.98 122.24C417.513 122.4 418.047 122.48 418.58 122.48C419.209 122.48 419.663 122.395 419.94 122.224C420.228 122.053 420.372 121.824 420.372 121.536C420.372 121.301 420.276 121.125 420.084 121.008C419.892 120.88 419.641 120.784 419.332 120.72C419.023 120.656 418.676 120.597 418.292 120.544C417.919 120.491 417.54 120.421 417.156 120.336C416.783 120.24 416.441 120.107 416.132 119.936C415.823 119.755 415.572 119.515 415.38 119.216C415.188 118.917 415.092 118.523 415.092 118.032C415.092 117.488 415.247 117.019 415.556 116.624C415.865 116.219 416.297 115.909 416.852 115.696C417.417 115.472 418.084 115.36 418.852 115.36C419.428 115.36 420.009 115.424 420.596 115.552C421.183 115.68 421.668 115.861 422.052 116.096L421.284 117.616C420.879 117.371 420.468 117.205 420.052 117.12C419.647 117.024 419.241 116.976 418.836 116.976C418.228 116.976 417.775 117.067 417.476 117.248C417.188 117.429 417.044 117.659 417.044 117.936C417.044 118.192 417.14 118.384 417.332 118.512C417.524 118.64 417.775 118.741 418.084 118.816C418.393 118.891 418.735 118.955 419.108 119.008C419.492 119.051 419.871 119.12 420.244 119.216C420.617 119.312 420.959 119.445 421.268 119.616C421.588 119.776 421.844 120.005 422.036 120.304C422.228 120.603 422.324 120.992 422.324 121.472C422.324 122.005 422.164 122.469 421.844 122.864C421.535 123.259 421.092 123.568 420.516 123.792C419.94 124.005 419.252 124.112 418.452 124.112Z" fill="#1A5A0F"/>
<rect x="696" width="62" height="62" rx="31" fill="#1A5A0F"/>
<path d="M721.22 38.7C720.113 38.7 719.113 38.42 718.22 37.86C717.34 37.3 716.647 36.4867 716.14 35.42C715.633 34.34 715.38 33.0333 715.38 31.5C715.38 29.9667 715.633 28.6667 716.14 27.6C716.647 26.52 717.34 25.7 718.22 25.14C719.113 24.58 720.113 24.3 721.22 24.3C722.34 24.3 723.34 24.58 724.22 25.14C725.1 25.7 725.793 26.52 726.3 27.6C726.82 28.6667 727.08 29.9667 727.08 31.5C727.08 33.0333 726.82 34.34 726.3 35.42C725.793 36.4867 725.1 37.3 724.22 37.86C723.34 38.42 722.34 38.7 721.22 38.7ZM721.22 36.44C721.873 36.44 722.44 36.2667 722.92 35.92C723.4 35.56 723.773 35.0133 724.04 34.28C724.32 33.5467 724.46 32.62 724.46 31.5C724.46 30.3667 724.32 29.44 724.04 28.72C723.773 27.9867 723.4 27.4467 722.92 27.1C722.44 26.74 721.873 26.56 721.22 26.56C720.593 26.56 720.033 26.74 719.54 27.1C719.06 27.4467 718.68 27.9867 718.4 28.72C718.133 29.44 718 30.3667 718 31.5C718 32.62 718.133 33.5467 718.4 34.28C718.68 35.0133 719.06 35.56 719.54 35.92C720.033 36.2667 720.593 36.44 721.22 36.44ZM727.638 38.5V36.76L733.198 31.48C733.664 31.04 734.011 30.6533 734.238 30.32C734.464 29.9867 734.611 29.68 734.678 29.4C734.758 29.1067 734.798 28.8333 734.798 28.58C734.798 27.94 734.578 27.4467 734.138 27.1C733.698 26.74 733.051 26.56 732.198 26.56C731.518 26.56 730.898 26.68 730.338 26.92C729.791 27.16 729.318 27.5267 728.918 28.02L727.098 26.62C727.644 25.8867 728.378 25.32 729.298 24.92C730.231 24.5067 731.271 24.3 732.418 24.3C733.431 24.3 734.311 24.4667 735.058 24.8C735.818 25.12 736.398 25.58 736.798 26.18C737.211 26.78 737.418 27.4933 737.418 28.32C737.418 28.7733 737.358 29.2267 737.238 29.68C737.118 30.12 736.891 30.5867 736.558 31.08C736.224 31.5733 735.738 32.1267 735.098 32.74L730.318 37.28L729.778 36.3H737.957V38.5H727.638Z" fill="white"/>
<path d="M728.5 77C728.5 76.1716 727.828 75.5 727 75.5C726.172 75.5 725.5 76.1716 725.5 77H728.5ZM725.5 77V101H728.5V77H725.5Z" fill="#1A5A0F"/>
<path d="M674.004 124V112.8H676.084V122.24H681.94V124H674.004ZM687.152 124.112C686.277 124.112 685.499 123.925 684.816 123.552C684.133 123.168 683.595 122.645 683.2 121.984C682.805 121.323 682.608 120.571 682.608 119.728C682.608 118.875 682.805 118.123 683.2 117.472C683.595 116.811 684.133 116.293 684.816 115.92C685.499 115.547 686.277 115.36 687.152 115.36C688.037 115.36 688.821 115.547 689.504 115.92C690.197 116.293 690.736 116.805 691.12 117.456C691.515 118.107 691.712 118.864 691.712 119.728C691.712 120.571 691.515 121.323 691.12 121.984C690.736 122.645 690.197 123.168 689.504 123.552C688.821 123.925 688.037 124.112 687.152 124.112ZM687.152 122.4C687.643 122.4 688.08 122.293 688.464 122.08C688.848 121.867 689.147 121.557 689.36 121.152C689.584 120.747 689.696 120.272 689.696 119.728C689.696 119.173 689.584 118.699 689.36 118.304C689.147 117.899 688.848 117.589 688.464 117.376C688.08 117.163 687.648 117.056 687.168 117.056C686.677 117.056 686.24 117.163 685.856 117.376C685.483 117.589 685.184 117.899 684.96 118.304C684.736 118.699 684.624 119.173 684.624 119.728C684.624 120.272 684.736 120.747 684.96 121.152C685.184 121.557 685.483 121.867 685.856 122.08C686.24 122.293 686.672 122.4 687.152 122.4ZM697.497 127.216C696.707 127.216 695.934 127.109 695.177 126.896C694.43 126.693 693.817 126.395 693.337 126L694.233 124.496C694.606 124.805 695.075 125.051 695.641 125.232C696.217 125.424 696.798 125.52 697.385 125.52C698.323 125.52 699.011 125.301 699.449 124.864C699.886 124.437 700.105 123.792 700.105 122.928V121.408L700.265 119.472L700.201 117.536V115.456H702.105V122.704C702.105 124.251 701.71 125.387 700.921 126.112C700.131 126.848 698.99 127.216 697.497 127.216ZM697.241 123.616C696.43 123.616 695.694 123.445 695.033 123.104C694.382 122.752 693.865 122.267 693.481 121.648C693.107 121.029 692.921 120.304 692.921 119.472C692.921 118.651 693.107 117.931 693.481 117.312C693.865 116.693 694.382 116.213 695.033 115.872C695.694 115.531 696.43 115.36 697.241 115.36C697.966 115.36 698.617 115.504 699.193 115.792C699.769 116.08 700.227 116.528 700.569 117.136C700.921 117.744 701.097 118.523 701.097 119.472C701.097 120.421 700.921 121.205 700.569 121.824C700.227 122.432 699.769 122.885 699.193 123.184C698.617 123.472 697.966 123.616 697.241 123.616ZM697.545 121.92C698.046 121.92 698.494 121.819 698.889 121.616C699.283 121.403 699.587 121.115 699.801 120.752C700.025 120.379 700.137 119.952 700.137 119.472C700.137 118.992 700.025 118.571 699.801 118.208C699.587 117.835 699.283 117.552 698.889 117.36C698.494 117.157 698.046 117.056 697.545 117.056C697.043 117.056 696.59 117.157 696.185 117.36C695.79 117.552 695.481 117.835 695.257 118.208C695.043 118.571 694.937 118.992 694.937 119.472C694.937 119.952 695.043 120.379 695.257 120.752C695.481 121.115 695.79 121.403 696.185 121.616C696.59 121.819 697.043 121.92 697.545 121.92ZM704.734 124V115.456H706.734V124H704.734ZM705.742 114.048C705.369 114.048 705.059 113.931 704.814 113.696C704.579 113.461 704.462 113.179 704.462 112.848C704.462 112.507 704.579 112.224 704.814 112C705.059 111.765 705.369 111.648 705.742 111.648C706.115 111.648 706.419 111.76 706.654 111.984C706.899 112.197 707.022 112.469 707.022 112.8C707.022 113.152 706.905 113.451 706.67 113.696C706.435 113.931 706.126 114.048 705.742 114.048ZM714.207 115.36C714.89 115.36 715.498 115.493 716.031 115.76C716.575 116.027 717.002 116.437 717.311 116.992C717.62 117.536 717.775 118.24 717.775 119.104V124H715.775V119.36C715.775 118.603 715.594 118.037 715.231 117.664C714.879 117.291 714.383 117.104 713.743 117.104C713.274 117.104 712.858 117.2 712.495 117.392C712.132 117.584 711.85 117.872 711.647 118.256C711.455 118.629 711.359 119.104 711.359 119.68V124H709.359V115.456H711.263V117.76L710.927 117.056C711.226 116.512 711.658 116.096 712.223 115.808C712.799 115.509 713.46 115.36 714.207 115.36ZM724.926 124V112.8H729.822C731.038 112.8 732.105 113.035 733.022 113.504C733.939 113.973 734.654 114.624 735.166 115.456C735.678 116.288 735.934 117.269 735.934 118.4C735.934 119.52 735.678 120.501 735.166 121.344C734.654 122.176 733.939 122.827 733.022 123.296C732.105 123.765 731.038 124 729.822 124H724.926ZM727.006 122.24H729.726C730.569 122.24 731.294 122.08 731.902 121.76C732.521 121.44 732.995 120.992 733.326 120.416C733.667 119.84 733.838 119.168 733.838 118.4C733.838 117.621 733.667 116.949 733.326 116.384C732.995 115.808 732.521 115.36 731.902 115.04C731.294 114.72 730.569 114.56 729.726 114.56H727.006V122.24ZM741.969 124.112C741.019 124.112 740.187 123.925 739.473 123.552C738.769 123.168 738.219 122.645 737.825 121.984C737.441 121.323 737.249 120.571 737.249 119.728C737.249 118.875 737.435 118.123 737.809 117.472C738.193 116.811 738.715 116.293 739.377 115.92C740.049 115.547 740.811 115.36 741.665 115.36C742.497 115.36 743.238 115.541 743.889 115.904C744.539 116.267 745.051 116.779 745.425 117.44C745.798 118.101 745.985 118.88 745.985 119.776C745.985 119.861 745.979 119.957 745.969 120.064C745.969 120.171 745.963 120.272 745.953 120.368H738.833V119.04H744.897L744.113 119.456C744.123 118.965 744.022 118.533 743.809 118.16C743.595 117.787 743.302 117.493 742.929 117.28C742.566 117.067 742.145 116.96 741.665 116.96C741.174 116.96 740.742 117.067 740.369 117.28C740.006 117.493 739.718 117.792 739.505 118.176C739.302 118.549 739.201 118.992 739.201 119.504V119.824C739.201 120.336 739.318 120.789 739.553 121.184C739.787 121.579 740.118 121.883 740.545 122.096C740.971 122.309 741.462 122.416 742.017 122.416C742.497 122.416 742.929 122.341 743.313 122.192C743.697 122.043 744.038 121.808 744.337 121.488L745.409 122.72C745.025 123.168 744.539 123.515 743.953 123.76C743.377 123.995 742.715 124.112 741.969 124.112ZM751.122 124.112C750.183 124.112 749.458 123.872 748.946 123.392C748.434 122.901 748.178 122.181 748.178 121.232V113.568H750.178V121.184C750.178 121.589 750.279 121.904 750.482 122.128C750.695 122.352 750.988 122.464 751.362 122.464C751.81 122.464 752.183 122.347 752.482 122.112L753.042 123.536C752.807 123.728 752.519 123.872 752.178 123.968C751.836 124.064 751.484 124.112 751.122 124.112ZM746.77 117.12V115.52H752.466V117.12H746.77ZM759.951 124V122.272L759.839 121.904V118.88C759.839 118.293 759.663 117.84 759.311 117.52C758.959 117.189 758.426 117.024 757.711 117.024C757.231 117.024 756.756 117.099 756.287 117.248C755.828 117.397 755.439 117.605 755.119 117.872L754.335 116.416C754.794 116.064 755.338 115.803 755.967 115.632C756.607 115.451 757.268 115.36 757.951 115.36C759.188 115.36 760.143 115.659 760.815 116.256C761.498 116.843 761.839 117.755 761.839 118.992V124H759.951ZM757.263 124.112C756.623 124.112 756.063 124.005 755.583 123.792C755.103 123.568 754.73 123.264 754.463 122.88C754.207 122.485 754.079 122.043 754.079 121.552C754.079 121.072 754.191 120.64 754.415 120.256C754.65 119.872 755.028 119.568 755.551 119.344C756.074 119.12 756.767 119.008 757.631 119.008H760.111V120.336H757.775C757.092 120.336 756.634 120.448 756.399 120.672C756.164 120.885 756.047 121.152 756.047 121.472C756.047 121.835 756.191 122.123 756.479 122.336C756.767 122.549 757.167 122.656 757.679 122.656C758.17 122.656 758.607 122.544 758.991 122.32C759.386 122.096 759.668 121.765 759.839 121.328L760.175 122.528C759.983 123.029 759.636 123.419 759.135 123.696C758.644 123.973 758.02 124.112 757.263 124.112ZM764.406 124V115.456H766.406V124H764.406ZM765.414 114.048C765.04 114.048 764.731 113.931 764.486 113.696C764.251 113.461 764.134 113.179 764.134 112.848C764.134 112.507 764.251 112.224 764.486 112C764.731 111.765 765.04 111.648 765.414 111.648C765.787 111.648 766.091 111.76 766.326 111.984C766.571 112.197 766.694 112.469 766.694 112.8C766.694 113.152 766.576 113.451 766.342 113.696C766.107 113.931 765.798 114.048 765.414 114.048ZM769.031 124V112.128H771.031V124H769.031ZM776.296 124.112C775.581 124.112 774.893 124.021 774.232 123.84C773.581 123.648 773.064 123.419 772.68 123.152L773.448 121.632C773.832 121.877 774.29 122.08 774.824 122.24C775.357 122.4 775.89 122.48 776.424 122.48C777.053 122.48 777.506 122.395 777.784 122.224C778.072 122.053 778.216 121.824 778.216 121.536C778.216 121.301 778.12 121.125 777.928 121.008C777.736 120.88 777.485 120.784 777.176 120.72C776.866 120.656 776.52 120.597 776.136 120.544C775.762 120.491 775.384 120.421 775 120.336C774.626 120.24 774.285 120.107 773.976 119.936C773.666 119.755 773.416 119.515 773.224 119.216C773.032 118.917 772.936 118.523 772.936 118.032C772.936 117.488 773.09 117.019 773.4 116.624C773.709 116.219 774.141 115.909 774.696 115.696C775.261 115.472 775.928 115.36 776.696 115.36C777.272 115.36 777.853 115.424 778.44 115.552C779.026 115.68 779.512 115.861 779.896 116.096L779.128 117.616C778.722 117.371 778.312 117.205 777.896 117.12C777.49 117.024 777.085 116.976 776.68 116.976C776.072 116.976 775.618 117.067 775.32 117.248C775.032 117.429 774.888 117.659 774.888 117.936C774.888 118.192 774.984 118.384 775.176 118.512C775.368 118.64 775.618 118.741 775.928 118.816C776.237 118.891 776.578 118.955 776.952 119.008C777.336 119.051 777.714 119.12 778.088 119.216C778.461 119.312 778.802 119.445 779.112 119.616C779.432 119.776 779.688 120.005 779.88 120.304C780.072 120.603 780.168 120.992 780.168 121.472C780.168 122.005 780.008 122.469 779.688 122.864C779.378 123.259 778.936 123.568 778.36 123.792C777.784 124.005 777.096 124.112 776.296 124.112Z" fill="#1A5A0F"/>
<rect x="1051.5" width="62" height="62" rx="31" fill="#E4E4E4"/>
<path d="M1077.22 38.7C1076.11 38.7 1075.11 38.42 1074.22 37.86C1073.34 37.3 1072.65 36.4867 1072.14 35.42C1071.63 34.34 1071.38 33.0333 1071.38 31.5C1071.38 29.9667 1071.63 28.6667 1072.14 27.6C1072.65 26.52 1073.34 25.7 1074.22 25.14C1075.11 24.58 1076.11 24.3 1077.22 24.3C1078.34 24.3 1079.34 24.58 1080.22 25.14C1081.1 25.7 1081.79 26.52 1082.3 27.6C1082.82 28.6667 1083.08 29.9667 1083.08 31.5C1083.08 33.0333 1082.82 34.34 1082.3 35.42C1081.79 36.4867 1081.1 37.3 1080.22 37.86C1079.34 38.42 1078.34 38.7 1077.22 38.7ZM1077.22 36.44C1077.87 36.44 1078.44 36.2667 1078.92 35.92C1079.4 35.56 1079.77 35.0133 1080.04 34.28C1080.32 33.5467 1080.46 32.62 1080.46 31.5C1080.46 30.3667 1080.32 29.44 1080.04 28.72C1079.77 27.9867 1079.4 27.4467 1078.92 27.1C1078.44 26.74 1077.87 26.56 1077.22 26.56C1076.59 26.56 1076.03 26.74 1075.54 27.1C1075.06 27.4467 1074.68 27.9867 1074.4 28.72C1074.13 29.44 1074 30.3667 1074 31.5C1074 32.62 1074.13 33.5467 1074.4 34.28C1074.68 35.0133 1075.06 35.56 1075.54 35.92C1076.03 36.2667 1076.59 36.44 1077.22 36.44ZM1088.04 38.7C1087.06 38.7 1086.09 38.56 1085.14 38.28C1084.21 37.9867 1083.42 37.5867 1082.78 37.08L1083.9 35.06C1084.41 35.4733 1085.02 35.8067 1085.74 36.06C1086.46 36.3133 1087.22 36.44 1088 36.44C1088.94 36.44 1089.66 36.2533 1090.18 35.88C1090.7 35.4933 1090.96 34.9733 1090.96 34.32C1090.96 33.68 1090.72 33.1733 1090.24 32.8C1089.76 32.4267 1088.99 32.24 1087.92 32.24H1086.64V30.46L1090.64 25.7L1090.98 26.68H1083.46V24.5H1093V26.24L1089 31L1087.64 30.2H1088.42C1090.14 30.2 1091.43 30.5867 1092.28 31.36C1093.15 32.12 1093.58 33.1 1093.58 34.3C1093.58 35.0867 1093.38 35.8133 1092.98 36.48C1092.58 37.1467 1091.97 37.6867 1091.14 38.1C1090.33 38.5 1089.3 38.7 1088.04 38.7Z" fill="#ADA4A5"/>
<path d="M1084 77C1084 76.1716 1083.33 75.5 1082.5 75.5C1081.67 75.5 1081 76.1716 1081 77H1084ZM1081 77V101H1084V77H1081Z" fill="#ADA4A5"/>
<path d="M1033.5 124V112.8H1038.11C1039.1 112.8 1039.95 112.96 1040.66 113.28C1041.37 113.6 1041.92 114.059 1042.3 114.656C1042.69 115.253 1042.88 115.963 1042.88 116.784C1042.88 117.605 1042.69 118.315 1042.3 118.912C1041.92 119.509 1041.37 119.968 1040.66 120.288C1039.95 120.608 1039.1 120.768 1038.11 120.768H1034.66L1035.58 119.792V124H1033.5ZM1035.58 120.016L1034.66 119.008H1038.02C1038.93 119.008 1039.62 118.816 1040.08 118.432C1040.55 118.037 1040.78 117.488 1040.78 116.784C1040.78 116.069 1040.55 115.52 1040.08 115.136C1039.62 114.752 1038.93 114.56 1038.02 114.56H1034.66L1035.58 113.536V120.016ZM1048.75 124.112C1047.8 124.112 1046.97 123.925 1046.25 123.552C1045.55 123.168 1045 122.645 1044.61 121.984C1044.22 121.323 1044.03 120.571 1044.03 119.728C1044.03 118.875 1044.22 118.123 1044.59 117.472C1044.97 116.811 1045.5 116.293 1046.16 115.92C1046.83 115.547 1047.59 115.36 1048.45 115.36C1049.28 115.36 1050.02 115.541 1050.67 115.904C1051.32 116.267 1051.83 116.779 1052.21 117.44C1052.58 118.101 1052.77 118.88 1052.77 119.776C1052.77 119.861 1052.76 119.957 1052.75 120.064C1052.75 120.171 1052.74 120.272 1052.73 120.368H1045.61V119.04H1051.68L1050.89 119.456C1050.9 118.965 1050.8 118.533 1050.59 118.16C1050.38 117.787 1050.08 117.493 1049.71 117.28C1049.35 117.067 1048.93 116.96 1048.45 116.96C1047.96 116.96 1047.52 117.067 1047.15 117.28C1046.79 117.493 1046.5 117.792 1046.29 118.176C1046.08 118.549 1045.98 118.992 1045.98 119.504V119.824C1045.98 120.336 1046.1 120.789 1046.33 121.184C1046.57 121.579 1046.9 121.883 1047.33 122.096C1047.75 122.309 1048.24 122.416 1048.8 122.416C1049.28 122.416 1049.71 122.341 1050.09 122.192C1050.48 122.043 1050.82 121.808 1051.12 121.488L1052.19 122.72C1051.81 123.168 1051.32 123.515 1050.73 123.76C1050.16 123.995 1049.5 124.112 1048.75 124.112ZM1054.69 124V115.456H1056.59V117.808L1056.37 117.12C1056.62 116.544 1057.02 116.107 1057.57 115.808C1058.12 115.509 1058.81 115.36 1059.63 115.36V117.264C1059.55 117.243 1059.47 117.232 1059.39 117.232C1059.32 117.221 1059.24 117.216 1059.17 117.216C1058.41 117.216 1057.81 117.44 1057.36 117.888C1056.91 118.325 1056.69 118.981 1056.69 119.856V124H1054.69ZM1072.11 115.36C1072.79 115.36 1073.4 115.493 1073.92 115.76C1074.45 116.027 1074.87 116.437 1075.17 116.992C1075.47 117.536 1075.62 118.24 1075.62 119.104V124H1073.62V119.36C1073.62 118.603 1073.45 118.037 1073.12 117.664C1072.79 117.291 1072.31 117.104 1071.7 117.104C1071.26 117.104 1070.87 117.2 1070.53 117.392C1070.2 117.584 1069.94 117.867 1069.74 118.24C1069.56 118.613 1069.47 119.088 1069.47 119.664V124H1067.47V119.36C1067.47 118.603 1067.31 118.037 1066.98 117.664C1066.64 117.291 1066.17 117.104 1065.55 117.104C1065.11 117.104 1064.72 117.2 1064.38 117.392C1064.05 117.584 1063.79 117.867 1063.6 118.24C1063.42 118.613 1063.33 119.088 1063.33 119.664V124H1061.33V115.456H1063.23V117.728L1062.9 117.056C1063.18 116.501 1063.6 116.08 1064.14 115.792C1064.7 115.504 1065.33 115.36 1066.03 115.36C1066.83 115.36 1067.52 115.557 1068.11 115.952C1068.71 116.347 1069.1 116.944 1069.3 117.744L1068.51 117.472C1068.79 116.832 1069.25 116.32 1069.89 115.936C1070.53 115.552 1071.27 115.36 1072.11 115.36ZM1078.17 124V115.456H1080.17V124H1078.17ZM1079.18 114.048C1078.81 114.048 1078.5 113.931 1078.25 113.696C1078.02 113.461 1077.9 113.179 1077.9 112.848C1077.9 112.507 1078.02 112.224 1078.25 112C1078.5 111.765 1078.81 111.648 1079.18 111.648C1079.55 111.648 1079.86 111.76 1080.09 111.984C1080.34 112.197 1080.46 112.469 1080.46 112.8C1080.46 113.152 1080.34 113.451 1080.11 113.696C1079.87 113.931 1079.56 114.048 1079.18 114.048ZM1085.44 124.112C1084.72 124.112 1084.03 124.021 1083.37 123.84C1082.72 123.648 1082.2 123.419 1081.82 123.152L1082.59 121.632C1082.97 121.877 1083.43 122.08 1083.96 122.24C1084.5 122.4 1085.03 122.48 1085.56 122.48C1086.19 122.48 1086.65 122.395 1086.92 122.224C1087.21 122.053 1087.36 121.824 1087.36 121.536C1087.36 121.301 1087.26 121.125 1087.07 121.008C1086.88 120.88 1086.63 120.784 1086.32 120.72C1086.01 120.656 1085.66 120.597 1085.28 120.544C1084.9 120.491 1084.52 120.421 1084.14 120.336C1083.77 120.24 1083.43 120.107 1083.12 119.936C1082.81 119.755 1082.56 119.515 1082.36 119.216C1082.17 118.917 1082.08 118.523 1082.08 118.032C1082.08 117.488 1082.23 117.019 1082.54 116.624C1082.85 116.219 1083.28 115.909 1083.84 115.696C1084.4 115.472 1085.07 115.36 1085.84 115.36C1086.41 115.36 1086.99 115.424 1087.58 115.552C1088.17 115.68 1088.65 115.861 1089.04 116.096L1088.27 117.616C1087.86 117.371 1087.45 117.205 1087.04 117.12C1086.63 117.024 1086.23 116.976 1085.82 116.976C1085.21 116.976 1084.76 117.067 1084.46 117.248C1084.17 117.429 1084.03 117.659 1084.03 117.936C1084.03 118.192 1084.12 118.384 1084.32 118.512C1084.51 118.64 1084.76 118.741 1085.07 118.816C1085.38 118.891 1085.72 118.955 1086.09 119.008C1086.48 119.051 1086.86 119.12 1087.23 119.216C1087.6 119.312 1087.94 119.445 1088.25 119.616C1088.57 119.776 1088.83 120.005 1089.02 120.304C1089.21 120.603 1089.31 120.992 1089.31 121.472C1089.31 122.005 1089.15 122.469 1088.83 122.864C1088.52 123.259 1088.08 123.568 1087.5 123.792C1086.92 124.005 1086.24 124.112 1085.44 124.112ZM1093.67 124.112C1092.96 124.112 1092.27 124.021 1091.61 123.84C1090.96 123.648 1090.44 123.419 1090.05 123.152L1090.82 121.632C1091.21 121.877 1091.67 122.08 1092.2 122.24C1092.73 122.4 1093.27 122.48 1093.8 122.48C1094.43 122.48 1094.88 122.395 1095.16 122.224C1095.45 122.053 1095.59 121.824 1095.59 121.536C1095.59 121.301 1095.49 121.125 1095.3 121.008C1095.11 120.88 1094.86 120.784 1094.55 120.72C1094.24 120.656 1093.89 120.597 1093.51 120.544C1093.14 120.491 1092.76 120.421 1092.37 120.336C1092 120.24 1091.66 120.107 1091.35 119.936C1091.04 119.755 1090.79 119.515 1090.6 119.216C1090.41 118.917 1090.31 118.523 1090.31 118.032C1090.31 117.488 1090.47 117.019 1090.77 116.624C1091.08 116.219 1091.52 115.909 1092.07 115.696C1092.64 115.472 1093.3 115.36 1094.07 115.36C1094.65 115.36 1095.23 115.424 1095.81 115.552C1096.4 115.68 1096.89 115.861 1097.27 116.096L1096.5 117.616C1096.1 117.371 1095.69 117.205 1095.27 117.12C1094.87 117.024 1094.46 116.976 1094.05 116.976C1093.45 116.976 1092.99 117.067 1092.69 117.248C1092.41 117.429 1092.26 117.659 1092.26 117.936C1092.26 118.192 1092.36 118.384 1092.55 118.512C1092.74 118.64 1092.99 118.741 1093.3 118.816C1093.61 118.891 1093.95 118.955 1094.33 119.008C1094.71 119.051 1095.09 119.12 1095.46 119.216C1095.84 119.312 1096.18 119.445 1096.49 119.616C1096.81 119.776 1097.06 120.005 1097.25 120.304C1097.45 120.603 1097.54 120.992 1097.54 121.472C1097.54 122.005 1097.38 122.469 1097.06 122.864C1096.75 123.259 1096.31 123.568 1095.73 123.792C1095.16 124.005 1094.47 124.112 1093.67 124.112ZM1099.27 124V115.456H1101.27V124H1099.27ZM1100.27 114.048C1099.9 114.048 1099.59 113.931 1099.35 113.696C1099.11 113.461 1098.99 113.179 1098.99 112.848C1098.99 112.507 1099.11 112.224 1099.35 112C1099.59 111.765 1099.9 111.648 1100.27 111.648C1100.65 111.648 1100.95 111.76 1101.19 111.984C1101.43 112.197 1101.55 112.469 1101.55 112.8C1101.55 113.152 1101.44 113.451 1101.2 113.696C1100.97 113.931 1100.66 114.048 1100.27 114.048ZM1107.73 124.112C1106.86 124.112 1106.08 123.925 1105.39 123.552C1104.71 123.168 1104.17 122.645 1103.78 121.984C1103.38 121.323 1103.19 120.571 1103.19 119.728C1103.19 118.875 1103.38 118.123 1103.78 117.472C1104.17 116.811 1104.71 116.293 1105.39 115.92C1106.08 115.547 1106.86 115.36 1107.73 115.36C1108.62 115.36 1109.4 115.547 1110.08 115.92C1110.78 116.293 1111.31 116.805 1111.7 117.456C1112.09 118.107 1112.29 118.864 1112.29 119.728C1112.29 120.571 1112.09 121.323 1111.7 121.984C1111.31 122.645 1110.78 123.168 1110.08 123.552C1109.4 123.925 1108.62 124.112 1107.73 124.112ZM1107.73 122.4C1108.22 122.4 1108.66 122.293 1109.04 122.08C1109.43 121.867 1109.72 121.557 1109.94 121.152C1110.16 120.747 1110.27 120.272 1110.27 119.728C1110.27 119.173 1110.16 118.699 1109.94 118.304C1109.72 117.899 1109.43 117.589 1109.04 117.376C1108.66 117.163 1108.23 117.056 1107.75 117.056C1107.26 117.056 1106.82 117.163 1106.43 117.376C1106.06 117.589 1105.76 117.899 1105.54 118.304C1105.31 118.699 1105.2 119.173 1105.2 119.728C1105.2 120.272 1105.31 120.747 1105.54 121.152C1105.76 121.557 1106.06 121.867 1106.43 122.08C1106.82 122.293 1107.25 122.4 1107.73 122.4ZM1119.05 115.36C1119.73 115.36 1120.34 115.493 1120.87 115.76C1121.42 116.027 1121.85 116.437 1122.15 116.992C1122.46 117.536 1122.62 118.24 1122.62 119.104V124H1120.62V119.36C1120.62 118.603 1120.44 118.037 1120.07 117.664C1119.72 117.291 1119.23 117.104 1118.59 117.104C1118.12 117.104 1117.7 117.2 1117.34 117.392C1116.98 117.584 1116.69 117.872 1116.49 118.256C1116.3 118.629 1116.2 119.104 1116.2 119.68V124H1114.2V115.456H1116.11V117.76L1115.77 117.056C1116.07 116.512 1116.5 116.096 1117.07 115.808C1117.64 115.509 1118.3 115.36 1119.05 115.36ZM1127.8 124.112C1127.08 124.112 1126.39 124.021 1125.73 123.84C1125.08 123.648 1124.56 123.419 1124.18 123.152L1124.95 121.632C1125.33 121.877 1125.79 122.08 1126.32 122.24C1126.86 122.4 1127.39 122.48 1127.92 122.48C1128.55 122.48 1129.01 122.395 1129.28 122.224C1129.57 122.053 1129.72 121.824 1129.72 121.536C1129.72 121.301 1129.62 121.125 1129.43 121.008C1129.24 120.88 1128.99 120.784 1128.68 120.72C1128.37 120.656 1128.02 120.597 1127.64 120.544C1127.26 120.491 1126.88 120.421 1126.5 120.336C1126.13 120.24 1125.79 120.107 1125.48 119.936C1125.17 119.755 1124.92 119.515 1124.72 119.216C1124.53 118.917 1124.44 118.523 1124.44 118.032C1124.44 117.488 1124.59 117.019 1124.9 116.624C1125.21 116.219 1125.64 115.909 1126.2 115.696C1126.76 115.472 1127.43 115.36 1128.2 115.36C1128.77 115.36 1129.35 115.424 1129.94 115.552C1130.53 115.68 1131.01 115.861 1131.4 116.096L1130.63 117.616C1130.22 117.371 1129.81 117.205 1129.4 117.12C1128.99 117.024 1128.59 116.976 1128.18 116.976C1127.57 116.976 1127.12 117.067 1126.82 117.248C1126.53 117.429 1126.39 117.659 1126.39 117.936C1126.39 118.192 1126.48 118.384 1126.68 118.512C1126.87 118.64 1127.12 118.741 1127.43 118.816C1127.74 118.891 1128.08 118.955 1128.45 119.008C1128.84 119.051 1129.21 119.12 1129.59 119.216C1129.96 119.312 1130.3 119.445 1130.61 119.616C1130.93 119.776 1131.19 120.005 1131.38 120.304C1131.57 120.603 1131.67 120.992 1131.67 121.472C1131.67 122.005 1131.51 122.469 1131.19 122.864C1130.88 123.259 1130.44 123.568 1129.86 123.792C1129.28 124.005 1128.6 124.112 1127.8 124.112Z" fill="#ADA4A5"/>
<defs>
<filter id="filter0_i_1309_9053" x="0" y="25" width="1087" height="18" filterUnits="userSpaceOnUse" color-interpolation-filters="sRGB">
<feFlood flood-opacity="0" result="BackgroundImageFix"/>
<feBlend mode="normal" in="SourceGraphic" in2="BackgroundImageFix" result="shape"/>
<feColorMatrix in="SourceAlpha" type="matrix" values="0 0 0 0 0 0 0 0 0 0 0 0 0 0 0 0 0 0 127 0" result="hardAlpha"/>
<feOffset dx="4" dy="4"/>
<feGaussianBlur stdDeviation="5"/>
<feComposite in2="hardAlpha" operator="arithmetic" k2="-1" k3="1"/>
<feColorMatrix type="matrix" values="0 0 0 0 0 0 0 0 0 0 0 0 0 0 0 0 0 0 0.55 0"/>
<feBlend mode="normal" in2="shape" result="effect1_innerShadow_1309_9053"/>
</filter>
<linearGradient id="paint0_linear_1309_9053" x1="-1.58245e-05" y1="25.0313" x2="0.617693" y2="64.8677" gradientUnits="userSpaceOnUse">
<stop stop-color="#BDE800"/>
<stop offset="0.582188" stop-color="#1A5A0F"/>
<stop offset="0.98228" stop-color="#BDE800"/>
</linearGradient>
</defs>
</svg>
