<svg width="53" height="20" viewBox="0 0 53 20" fill="none" xmlns="http://www.w3.org/2000/svg">
<path d="M35.0012 5.25453C29.6342 2.92348 22.8782 2.05528 17.0741 2.6845C13.7828 3.04128 10.5704 4.02403 7.48928 5.22368C5.89378 5.84489 4.34115 6.53445 2.8148 7.31104C2.37161 7.53653 0.723756 8.83336 0.293687 8.55286C-1.15309 7.60921 5.54027 4.21018 6.28684 3.89603C9.44364 2.56781 12.712 1.37702 16.1053 0.868009C21.7973 0.0142069 28.2588 0.208928 33.7238 2.0917C36.9059 3.18797 40.1066 4.25317 43.012 6.04723C44.2338 6.80171 45.3887 7.67093 46.4478 8.64309C47.1971 9.33091 47.9471 10.0534 48.6039 10.8326C49.0902 11.4095 49.4198 12.4019 49.9725 12.8659C50.3748 11.6415 49.6874 10.018 50.01 8.71944C50.3937 7.17538 51.3037 8.13321 51.5804 9.15208C52.0208 10.7736 52.1872 12.4555 52.4317 14.1144C52.64 15.528 53.2463 17.2835 51.6186 17.9071C50.1894 18.4546 48.5072 18.4538 47.0149 18.6848C46.017 18.8393 43.924 19.6931 43.0819 18.8304C40.4504 16.1345 48.6694 16.4971 49.2414 16.275C48.9462 15.7568 48.37 15.3524 47.9852 14.8851C47.4288 14.2095 46.9749 13.4606 46.415 12.7868C45.3592 11.5164 44.1297 10.3245 42.8442 9.29053C40.6148 7.49734 37.751 6.01749 35.0012 5.25453C35.3987 5.36483 33.0595 4.41121 35.0012 5.25453Z" fill="#222221"/>
</svg>
