<svg width="21" height="21" viewBox="0 0 21 21" fill="none" xmlns="http://www.w3.org/2000/svg">
<path fill-rule="evenodd" clip-rule="evenodd" d="M1.5 4.95947C1.5 2.33426 1.52811 1.45947 5 1.45947C8.47189 1.45947 8.5 2.33426 8.5 4.95947C8.5 7.58469 8.51107 8.45947 5 8.45947C1.48893 8.45947 1.5 7.58469 1.5 4.95947Z" stroke="white" stroke-width="1.5" stroke-linecap="round" stroke-linejoin="round"/>
<path fill-rule="evenodd" clip-rule="evenodd" d="M12.5 4.95947C12.5 2.33426 12.5281 1.45947 16 1.45947C19.4719 1.45947 19.5 2.33426 19.5 4.95947C19.5 7.58469 19.5111 8.45947 16 8.45947C12.4889 8.45947 12.5 7.58469 12.5 4.95947Z" stroke="white" stroke-width="1.5" stroke-linecap="round" stroke-linejoin="round"/>
<path fill-rule="evenodd" clip-rule="evenodd" d="M1.5 15.9595C1.5 13.3343 1.52811 12.4595 5 12.4595C8.47189 12.4595 8.5 13.3343 8.5 15.9595C8.5 18.5847 8.51107 19.4595 5 19.4595C1.48893 19.4595 1.5 18.5847 1.5 15.9595Z" stroke="white" stroke-width="1.5" stroke-linecap="round" stroke-linejoin="round"/>
<path fill-rule="evenodd" clip-rule="evenodd" d="M12.5 15.9595C12.5 13.3343 12.5281 12.4595 16 12.4595C19.4719 12.4595 19.5 13.3343 19.5 15.9595C19.5 18.5847 19.5111 19.4595 16 19.4595C12.4889 19.4595 12.5 18.5847 12.5 15.9595Z" stroke="white" stroke-width="1.5" stroke-linecap="round" stroke-linejoin="round"/>
</svg>
