<svg width="25" height="25" viewBox="0 0 25 25" fill="none" xmlns="http://www.w3.org/2000/svg">
<path d="M19.825 9.96777C19.825 9.96777 19.282 16.7028 18.967 19.5398C18.817 20.8948 17.98 21.6888 16.609 21.7138C14 21.7608 11.388 21.7638 8.78003 21.7088C7.46103 21.6818 6.63803 20.8778 6.49103 19.5468C6.17403 16.6848 5.63403 9.96777 5.63403 9.96777" stroke="#F7004E" stroke-width="1.5" stroke-linecap="round" stroke-linejoin="round"/>
<path d="M21.2082 6.73926H4.25024" stroke="#F7004E" stroke-width="1.5" stroke-linecap="round" stroke-linejoin="round"/>
<path d="M17.9406 6.73949C17.1556 6.73949 16.4796 6.18449 16.3256 5.41549L16.0826 4.19949C15.9326 3.63849 15.4246 3.25049 14.8456 3.25049H10.6126C10.0336 3.25049 9.52558 3.63849 9.37558 4.19949L9.13258 5.41549C8.97858 6.18449 8.30258 6.73949 7.51758 6.73949" stroke="#F7004E" stroke-width="1.5" stroke-linecap="round" stroke-linejoin="round"/>
</svg>
