<svg width="20" height="21" viewBox="0 0 20 21" fill="none" xmlns="http://www.w3.org/2000/svg">
<path fill-rule="evenodd" clip-rule="evenodd" d="M0 10.4595C0 4.93947 4.47 0.459473 10 0.459473C15.52 0.459473 20 4.93947 20 10.4595C20 15.9895 15.52 20.4595 10 20.4595C4.47 20.4595 0 15.9895 0 10.4595ZM12.23 12.2895L13.85 7.16947C13.96 6.81947 13.64 6.48947 13.29 6.59947L8.17 8.19947C7.96 8.26947 7.79 8.42947 7.73 8.63947L6.13 13.7695C6.02 14.1095 6.35 14.4395 6.69 14.3295L11.79 12.7295C12 12.6695 12.17 12.4995 12.23 12.2895Z" fill="#130F26"/>
</svg>
