<svg width="50" height="50" viewBox="0 0 50 50" fill="none" xmlns="http://www.w3.org/2000/svg">
<path fill-rule="evenodd" clip-rule="evenodd" d="M34.0294 5.72938H15.969C9.6752 5.72938 5.72937 10.1856 5.72937 16.4919V33.5085C5.72937 39.8148 9.65645 44.271 15.969 44.271H34.0273C40.3419 44.271 44.271 39.8148 44.271 33.5085V16.4919C44.271 10.1856 40.3419 5.72938 34.0294 5.72938Z" stroke="#130F26" stroke-width="3" stroke-linecap="round" stroke-linejoin="round"/>
<path fill-rule="evenodd" clip-rule="evenodd" d="M22.2689 25.0002C22.2689 27.1315 20.5419 28.8585 18.4106 28.8585C16.2794 28.8585 14.5523 27.1315 14.5523 25.0002C14.5523 22.869 16.2794 21.1419 18.4106 21.1419H18.4169C20.5439 21.144 22.2689 22.871 22.2689 25.0002Z" stroke="#130F26" stroke-width="3" stroke-linecap="round" stroke-linejoin="round"/>
<path d="M22.275 25.0002H35.4375V28.8585" stroke="#130F26" stroke-width="1.5" stroke-linecap="round" stroke-linejoin="round"/>
<path d="M29.5454 28.8588V25.0004" stroke="#130F26" stroke-width="1.5" stroke-linecap="round" stroke-linejoin="round"/>
</svg>
