<svg width="214" height="84" viewBox="0 0 214 84" fill="none" xmlns="http://www.w3.org/2000/svg">
<path d="M214 39.9107L205.083 83.8312L34.5603 83.0458L43.4768 39.1253L214 39.9107Z" fill="white"/>
<path fill-rule="evenodd" clip-rule="evenodd" d="M76.2939 44.5153L70.365 77.0861H61.1558L63.4658 64.3812H50.8995L48.5895 77.0861H39.3804L45.3093 44.5153H54.5185L52.2855 56.7428H64.8518L67.0694 44.5153H76.2939ZM76.0321 60.793C77.8185 51.0294 86.7967 43.8685 97.2224 43.8685C107.633 43.8685 114.008 51.0294 112.237 60.793C110.451 70.5719 101.473 77.7329 91.047 77.7329C80.6367 77.7329 74.2611 70.5719 76.0321 60.793ZM102.92 60.793C103.952 55.172 100.764 51.4914 95.821 51.4914C90.893 51.4914 86.3654 55.172 85.3337 60.793C84.3173 66.4293 87.5051 70.0945 92.4484 70.0945C97.3764 70.0945 101.904 66.4293 102.92 60.793ZM114.332 62.564L117.612 44.5153H126.821L123.587 62.2868C122.571 67.8615 124.496 70.0945 128.361 70.0945C132.165 70.0945 134.906 67.8615 135.922 62.2868L139.156 44.5153H148.227L144.947 62.564C143.176 72.2813 136.508 77.7329 126.867 77.7329C117.242 77.7329 112.561 72.2813 114.332 62.564ZM162.21 68.4313H157.174L155.603 77.0861H146.394L152.323 44.5153H167.199C176.085 44.5153 180.844 49.1198 179.489 56.558C178.611 61.3628 175.639 64.8893 171.234 66.8451L176.393 77.0861H166.537L162.21 68.4313ZM165.336 51.7686H160.223L158.483 61.3012H163.596C167.415 61.3012 169.648 59.5456 170.187 56.558C170.726 53.5396 169.155 51.7686 165.336 51.7686ZM176.932 74.1447L181.198 67.3533C183.739 69.2629 187.589 70.5719 191.362 70.5719C195.181 70.5719 196.86 69.4939 197.152 67.9077C198.092 62.7488 178.888 66.5217 181.09 54.4174C182.153 48.6117 187.758 43.8685 197.43 43.8685C201.664 43.8685 205.853 44.8387 208.733 46.7021L204.652 53.5396C201.834 51.861 198.923 51.0295 196.074 51.0295C192.224 51.0295 190.592 52.323 190.284 53.9554C189.391 58.9296 208.533 55.2182 206.346 67.2147C205.314 72.8973 199.693 77.7329 190.007 77.7329C184.663 77.7329 179.627 76.2853 176.932 74.1447Z" fill="black"/>
<path d="M42.4759 18.7051C43.1946 17.74 43.9133 16.7749 44.6319 15.8099C45.2171 15.0399 44.3547 14.3931 43.7695 15.1785C43.0509 16.1333 42.3322 17.0932 41.6136 18.0582C41.0284 18.8282 41.8907 19.4751 42.4759 18.7051ZM34.4064 15.0399C34.5501 13.8387 34.6939 12.6426 34.8376 11.4517C34.9454 10.4815 33.8828 10.3583 33.775 11.3285C33.6313 12.5194 33.4875 13.7103 33.3438 14.9013C33.2206 15.8715 34.2832 15.9947 34.4064 15.0399ZM25.5823 15.8869C25.11 14.7781 24.6377 13.6693 24.1655 12.5605C23.7959 11.6827 22.8103 12.0985 23.1799 12.9917C23.6521 14.1005 24.1244 15.2042 24.5967 16.3027C24.9817 17.1959 25.9672 16.7801 25.5823 15.8869ZM18.3751 21.0304C17.4203 20.3118 16.4604 19.5931 15.4953 18.8745C14.7253 18.2893 14.0785 19.1516 14.8485 19.7214C15.8136 20.4401 16.7787 21.1639 17.7437 21.8928C18.5137 22.478 19.1605 21.6156 18.3751 21.0304ZM14.7099 29.1C13.519 28.9563 12.3229 28.8125 11.1218 28.6688C10.167 28.5456 10.0284 29.6082 10.9986 29.7314C12.1895 29.8751 13.3855 30.0189 14.5867 30.1626C15.5415 30.2704 15.6801 29.2078 14.7099 29.1ZM15.5569 37.9087C14.4584 38.381 13.3547 38.8533 12.2459 39.3255C11.3528 39.7105 11.7686 40.6961 12.6617 40.3111C13.7705 39.8388 14.8793 39.3666 15.9881 38.8943C16.8813 38.5247 16.4501 37.5391 15.5569 37.9087ZM20.7159 45.1159C19.987 46.0809 19.2632 47.046 18.5445 48.011C17.9593 48.781 18.8217 49.4279 19.4069 48.6425L21.5629 45.7627C22.1481 44.9927 21.2857 44.3459 20.7159 45.1159Z" fill="white"/>
<path d="M62.4188 17.7195L59.616 30.486L49.9603 21.6772L52.5937 20.8456C48.1277 11.8059 38.241 6.38513 28.1694 7.57092C21.7939 8.34091 16.0959 11.5287 12.1227 16.5953C8.13416 21.6464 6.36317 27.945 7.11777 34.3205C7.87236 40.6961 11.0755 46.3941 16.1267 50.3826C21.1933 54.3558 27.4764 56.1422 33.852 55.3722L34.776 55.2644L33.3438 62.3791C31.8962 62.5023 30.4332 62.5177 29.001 62.4254C22.7949 62.025 16.8505 59.7612 11.8455 55.8188C5.33138 50.6906 1.2042 43.3449 0.21861 35.1367C-0.751584 26.9132 1.5276 18.8128 6.65577 12.2987C11.7839 5.78453 19.1451 1.65737 27.3532 0.687175C40.7357 -0.914414 53.7332 6.47753 59.2618 18.7204L62.4188 17.7195Z" fill="#BDE800"/>
<path d="M33.6211 31.3946L39.3344 23.7562C39.627 23.3866 39.55 22.8476 39.165 22.555C38.78 22.2624 38.241 22.3548 37.9638 22.7244L32.2351 30.3628C31.9579 30.3166 31.6807 30.332 31.4189 30.409L22.2868 23.556C21.9018 23.2634 21.3628 23.3404 21.0702 23.7254C20.793 24.095 20.87 24.6494 21.2396 24.9266L30.1869 31.6256C29.9559 32.3648 30.1869 33.1809 30.8337 33.6583C31.6653 34.2743 32.8203 34.1049 33.4363 33.2887C33.8675 32.7189 33.8983 31.9952 33.6211 31.3946Z" fill="white"/>
</svg>
