<svg width="24" height="25" viewBox="0 0 24 25" fill="none" xmlns="http://www.w3.org/2000/svg">
<path d="M9 22.4736H5C3.3 22.4736 2 21.1736 2 19.4736V5.47363C2 3.77363 3.3 2.47363 5 2.47363H9C9.6 2.47363 10 2.87363 10 3.47363C10 4.07363 9.6 4.47363 9 4.47363H5C4.4 4.47363 4 4.87363 4 5.47363V19.4736C4 20.0736 4.4 20.4736 5 20.4736H9C9.6 20.4736 10 20.8736 10 21.4736C10 22.0736 9.6 22.4736 9 22.4736Z" fill="#BFBFBF"/>
<path d="M16 18.4736C15.7 18.4736 15.5 18.3736 15.3 18.1736C14.9 17.7736 14.9 17.1736 15.3 16.7736L19.6 12.4736L15.3 8.17363C14.9 7.77363 14.9 7.17363 15.3 6.77363C15.7 6.37363 16.3 6.37363 16.7 6.77363L21.7 11.7736C22.1 12.1736 22.1 12.7736 21.7 13.1736L16.7 18.1736C16.5 18.3736 16.3 18.4736 16 18.4736Z" fill="#BFBFBF"/>
<path d="M21 13.4736H9C8.4 13.4736 8 13.0736 8 12.4736C8 11.8736 8.4 11.4736 9 11.4736H21C21.6 11.4736 22 11.8736 22 12.4736C22 13.0736 21.6 13.4736 21 13.4736Z" fill="white"/>
</svg>
