<svg width="18" height="23" viewBox="0 0 18 23" fill="none" xmlns="http://www.w3.org/2000/svg">
<path d="M4.45856 14.2246C4.45856 13.8574 4.20378 13.6384 3.75425 13.6384C3.57069 13.6384 3.44637 13.6565 3.38135 13.6739V14.8519C3.45834 14.8693 3.55299 14.875 3.68345 14.875C4.1626 14.875 4.45856 14.633 4.45856 14.2246Z" fill="#5C31B7"/>
<path d="M7.24185 13.6506C7.04054 13.6506 6.91044 13.668 6.8335 13.686V16.2951C6.91049 16.3131 7.03481 16.3131 7.1472 16.3131C7.96386 16.3189 8.49649 15.8694 8.49649 14.9169C8.50226 14.0886 8.01692 13.6506 7.24185 13.6506Z" fill="#5C31B7"/>
<path d="M12.4112 0H3.53119C2.2339 0 1.17806 1.05658 1.17806 2.35313V11.0546H0.948223C0.424632 11.0546 0 11.4788 0 12.0029V17.7535C0 18.2775 0.424586 18.7017 0.948223 18.7017H1.17806V19.7561C1.17806 21.0541 2.2339 22.1093 3.53119 22.1093H15.6476C16.944 22.1093 18 21.0541 18 19.7561V5.56924L12.4112 0ZM2.48758 13.0407C2.76547 12.9937 3.15608 12.9583 3.70641 12.9583C4.26255 12.9583 4.65894 13.0645 4.92527 13.2777C5.17969 13.4786 5.35137 13.8103 5.35137 14.2006C5.35137 14.5909 5.22128 14.9227 4.98457 15.1474C4.67669 15.4372 4.22137 15.5673 3.68875 15.5673C3.57021 15.5673 3.46396 15.5614 3.38087 15.5499V16.9759H2.48758V13.0407ZM15.6476 20.6682H3.53119C3.02887 20.6682 2.61983 20.2591 2.61983 19.7561V18.7017H13.9148C14.4385 18.7017 14.863 18.2775 14.863 17.7535V12.0029C14.863 11.4788 14.4385 11.0546 13.9148 11.0546H2.61983V2.35313C2.61983 1.85155 3.02892 1.44251 3.53119 1.44251L11.872 1.4338V4.51688C11.872 5.41741 12.6027 6.14877 13.5039 6.14877L16.5242 6.14011L16.5581 19.7561C16.5581 20.2591 16.1498 20.6682 15.6476 20.6682ZM5.92738 16.9578V13.0407C6.25869 12.9879 6.69052 12.9583 7.14625 12.9583C7.90361 12.9583 8.39474 13.0942 8.77957 13.3839C9.1937 13.6918 9.45384 14.1826 9.45384 14.8872C9.45384 15.6504 9.17595 16.1772 8.79108 16.5024C8.37117 16.8515 7.73197 17.017 6.95108 17.017C6.48344 17.017 6.15212 16.9874 5.92738 16.9578ZM12.3852 14.6386V15.3721H10.9531V16.9759H10.0479V12.9879H12.4857V13.7272H10.9531V14.6386H12.3852Z" fill="#5C31B7"/>
</svg>
