<svg width="29" height="30" viewBox="0 0 29 30" fill="none" xmlns="http://www.w3.org/2000/svg">
<path d="M25.75 23.4375H22.9375C22.6889 23.4375 22.4504 23.3387 22.2746 23.1629C22.0988 22.9871 22 22.7486 22 22.5C22 22.2514 22.0988 22.0129 22.2746 21.8371C22.4504 21.6613 22.6889 21.5625 22.9375 21.5625H25.75C25.9986 21.5625 26.2371 21.4637 26.4129 21.2879C26.5887 21.1121 26.6875 20.8736 26.6875 20.625V9.375C26.6875 9.12636 26.5887 8.8879 26.4129 8.71209C26.2371 8.53627 25.9986 8.4375 25.75 8.4375H3.25C3.00136 8.4375 2.7629 8.53627 2.58709 8.71209C2.41127 8.8879 2.3125 9.12636 2.3125 9.375V20.625C2.3125 20.8736 2.41127 21.1121 2.58709 21.2879C2.7629 21.4637 3.00136 21.5625 3.25 21.5625H6.0625C6.31114 21.5625 6.5496 21.6613 6.72541 21.8371C6.90123 22.0129 7 22.2514 7 22.5C7 22.7486 6.90123 22.9871 6.72541 23.1629C6.5496 23.3387 6.31114 23.4375 6.0625 23.4375H3.25C2.50408 23.4375 1.78871 23.1412 1.26126 22.6137C0.733816 22.0863 0.4375 21.3709 0.4375 20.625V9.375C0.4375 8.62908 0.733816 7.91371 1.26126 7.38626C1.78871 6.85882 2.50408 6.5625 3.25 6.5625H25.75C26.4959 6.5625 27.2113 6.85882 27.7387 7.38626C28.2662 7.91371 28.5625 8.62908 28.5625 9.375V20.625C28.5625 21.3709 28.2662 22.0863 27.7387 22.6137C27.2113 23.1412 26.4959 23.4375 25.75 23.4375Z" fill="black"/>
<path d="M22.9375 29.0625H6.0625C5.81386 29.0625 5.5754 28.9637 5.39959 28.7879C5.22377 28.6121 5.125 28.3736 5.125 28.125V18.75C5.125 18.5014 5.22377 18.2629 5.39959 18.0871C5.5754 17.9113 5.81386 17.8125 6.0625 17.8125H22.9375C23.1861 17.8125 23.4246 17.9113 23.6004 18.0871C23.7762 18.2629 23.875 18.5014 23.875 18.75V28.125C23.875 28.3736 23.7762 28.6121 23.6004 28.7879C23.4246 28.9637 23.1861 29.0625 22.9375 29.0625ZM7 27.1875H22V19.6875H7V27.1875Z" fill="black"/>
<path d="M22.9375 8.4375C22.6889 8.4375 22.4504 8.33873 22.2746 8.16291C22.0988 7.9871 22 7.74864 22 7.5V2.8125H7V7.5C7 7.74864 6.90123 7.9871 6.72541 8.16291C6.5496 8.33873 6.31114 8.4375 6.0625 8.4375C5.81386 8.4375 5.5754 8.33873 5.39959 8.16291C5.22377 7.9871 5.125 7.74864 5.125 7.5V1.875C5.125 1.62636 5.22377 1.3879 5.39959 1.21209C5.5754 1.03627 5.81386 0.9375 6.0625 0.9375H22.9375C23.1861 0.9375 23.4246 1.03627 23.6004 1.21209C23.7762 1.3879 23.875 1.62636 23.875 1.875V7.5C23.875 7.74864 23.7762 7.9871 23.6004 8.16291C23.4246 8.33873 23.1861 8.4375 22.9375 8.4375Z" fill="black"/>
<path d="M23.875 10.3125H22V12.1875H23.875V10.3125Z" fill="black"/>
<path d="M20.125 10.3125H16.375V12.1875H20.125V10.3125Z" fill="black"/>
</svg>
