<svg width="25" height="25" viewBox="0 0 25 25" fill="none" xmlns="http://www.w3.org/2000/svg">
<path d="M18.3877 11.3562C19.7827 11.1602 20.8567 9.9642 20.8597 8.5152C20.8597 7.0872 19.8187 5.9032 18.4537 5.6792" stroke="white" stroke-width="1.5" stroke-linecap="round" stroke-linejoin="round"/>
<path d="M20.2285 14.71C21.5795 14.912 22.5225 15.385 22.5225 16.36C22.5225 17.031 22.0785 17.467 21.3605 17.741" stroke="white" stroke-width="1.5" stroke-linecap="round" stroke-linejoin="round"/>
<path fill-rule="evenodd" clip-rule="evenodd" d="M12.3867 15.1235C9.17273 15.1235 6.42773 15.6105 6.42773 17.5555C6.42773 19.4995 9.15573 20.0005 12.3867 20.0005C15.6007 20.0005 18.3447 19.5185 18.3447 17.5725C18.3447 15.6265 15.6177 15.1235 12.3867 15.1235Z" stroke="white" stroke-width="1.5" stroke-linecap="round" stroke-linejoin="round"/>
<path fill-rule="evenodd" clip-rule="evenodd" d="M12.3867 12.3475C14.4957 12.3475 16.2057 10.6385 16.2057 8.52847C16.2057 6.41947 14.4957 4.70947 12.3867 4.70947C10.2777 4.70947 8.56766 6.41947 8.56766 8.52847C8.55966 10.6305 10.2567 12.3405 12.3587 12.3475H12.3867Z" stroke="white" stroke-width="1.5" stroke-linecap="round" stroke-linejoin="round"/>
<path d="M6.38472 11.3562C4.98872 11.1602 3.91572 9.9642 3.91272 8.5152C3.91272 7.0872 4.95372 5.9032 6.31872 5.6792" stroke="white" stroke-width="1.5" stroke-linecap="round" stroke-linejoin="round"/>
<path d="M4.54388 14.71C3.19288 14.912 2.24988 15.385 2.24988 16.36C2.24988 17.031 2.69388 17.467 3.41188 17.741" stroke="white" stroke-width="1.5" stroke-linecap="round" stroke-linejoin="round"/>
</svg>
