<svg width="24" height="51" viewBox="0 0 24 51" fill="none" xmlns="http://www.w3.org/2000/svg">
<path d="M15.7617 34.9783C19.0687 30.1511 21.2029 23.6824 21.6862 17.8644C21.9603 14.5652 21.6049 11.2246 21.0116 7.97191C20.7044 6.28753 20.3219 4.63228 19.849 2.98631C19.7117 2.50839 18.7511 0.64443 19.1081 0.27539C20.3091 -0.966077 22.3765 6.25058 22.5433 7.04319C23.2485 10.3947 23.7975 13.8296 23.6535 17.2578C23.4119 23.0084 21.9949 29.3156 19.1094 34.3242C17.4294 37.2405 15.7763 40.1809 13.4636 42.6932C12.491 43.7497 11.4184 44.7188 10.263 45.5741C9.44553 46.1794 8.59387 46.7786 7.70423 47.2756C7.0455 47.6437 6.00861 47.779 5.44818 48.2336C6.57401 48.8609 8.29845 48.494 9.51223 49.0571C10.9555 49.7268 9.84236 50.4386 8.7895 50.517C7.11389 50.6417 5.43094 50.486 3.75584 50.4113C2.32834 50.3476 0.489696 50.6098 0.186299 48.8934C-0.0801147 47.3863 0.239821 45.7348 0.29613 44.2258C0.333777 43.2167 -0.107494 40.9997 0.899275 40.3366C4.04553 38.2644 2.13013 46.2653 2.23974 46.8691C2.80447 46.6776 3.31092 46.1885 3.84265 45.8994C4.61162 45.4812 5.43301 45.1777 6.20075 44.7557C7.64839 43.9602 9.05196 42.9791 10.311 41.9131C12.4946 40.0644 14.4909 37.5334 15.7617 34.9783C15.578 35.3477 16.9581 33.2319 15.7617 34.9783Z" fill="#222221"/>
</svg>
