<svg width="20" height="15" viewBox="0 0 20 15" fill="none" xmlns="http://www.w3.org/2000/svg">
<path d="M11.5414 1.04199V3.05866" stroke="#444444" stroke-width="1.5" stroke-linecap="round" stroke-linejoin="round"/>
<path d="M11.5414 12.3002V13.9868" stroke="#444444" stroke-width="1.5" stroke-linecap="round" stroke-linejoin="round"/>
<path d="M11.5414 9.4373V5.4198" stroke="#444444" stroke-width="1.5" stroke-linecap="round" stroke-linejoin="round"/>
<path fill-rule="evenodd" clip-rule="evenodd" d="M15.5851 14.1667C17.1035 14.1667 18.3333 12.9522 18.3333 11.4527V9.29224C17.3286 9.29224 16.5194 8.49313 16.5194 7.5009C16.5194 6.50867 17.3286 5.7087 18.3333 5.7087L18.3325 3.54742C18.3325 2.04791 17.1017 0.833374 15.5842 0.833374H4.41575C2.89823 0.833374 1.66753 2.04791 1.66753 3.54742L1.66666 5.77908C2.67138 5.77908 3.48056 6.50867 3.48056 7.5009C3.48056 8.49313 2.67138 9.29224 1.66666 9.29224V11.4527C1.66666 12.9522 2.89649 14.1667 4.41488 14.1667H15.5851Z" stroke="#444444" stroke-width="1.5" stroke-linecap="round" stroke-linejoin="round"/>
</svg>
