<svg width="24" height="25" viewBox="0 0 24 25" fill="none" xmlns="http://www.w3.org/2000/svg">
<path fill-rule="evenodd" clip-rule="evenodd" d="M20.4023 14.0395C20.76 14.2295 21.036 14.5295 21.2301 14.8295C21.6083 15.4495 21.5776 16.2095 21.2097 16.8795L20.4943 18.0795C20.1162 18.7195 19.411 19.1195 18.6855 19.1195C18.3278 19.1195 17.9292 19.0195 17.6022 18.8195C17.3365 18.6495 17.0299 18.5895 16.7029 18.5895C15.6911 18.5895 14.8429 19.4195 14.8122 20.4095C14.8122 21.5595 13.872 22.4595 12.6968 22.4595H11.3069C10.1215 22.4595 9.18125 21.5595 9.18125 20.4095C9.16081 19.4195 8.31259 18.5895 7.30085 18.5895C6.96361 18.5895 6.65702 18.6495 6.40153 18.8195C6.0745 19.0195 5.66572 19.1195 5.31825 19.1195C4.58245 19.1195 3.87729 18.7195 3.49917 18.0795L2.79402 16.8795C2.4159 16.2295 2.39546 15.4495 2.77358 14.8295C2.93709 14.5295 3.24368 14.2295 3.59115 14.0395C3.87729 13.8995 4.06125 13.6695 4.23498 13.3995C4.74596 12.5395 4.43937 11.4095 3.57071 10.8995C2.55897 10.3295 2.23194 9.05947 2.81446 8.06947L3.49917 6.88947C4.09191 5.89947 5.35913 5.54947 6.38109 6.12947C7.27019 6.60947 8.425 6.28947 8.9462 5.43947C9.10972 5.15947 9.20169 4.85947 9.18125 4.55947C9.16081 4.16947 9.27323 3.79947 9.4674 3.49947C9.84553 2.87947 10.5302 2.47947 11.2763 2.45947H12.7172C13.4735 2.45947 14.1582 2.87947 14.5363 3.49947C14.7203 3.79947 14.8429 4.16947 14.8122 4.55947C14.7918 4.85947 14.8838 5.15947 15.0473 5.43947C15.5685 6.28947 16.7233 6.60947 17.6226 6.12947C18.6344 5.54947 19.9118 5.89947 20.4943 6.88947L21.179 8.06947C21.7718 9.05947 21.4447 10.3295 20.4228 10.8995C19.5541 11.4095 19.2475 12.5395 19.7687 13.3995C19.9322 13.6695 20.1162 13.8995 20.4023 14.0395ZM9.10972 12.4695C9.10972 14.0395 10.4076 15.2895 12.0121 15.2895C13.6165 15.2895 14.8838 14.0395 14.8838 12.4695C14.8838 10.8995 13.6165 9.63947 12.0121 9.63947C10.4076 9.63947 9.10972 10.8995 9.10972 12.4695Z" fill="#130F26"/>
</svg>
