<svg width="350" height="170" viewBox="0 0 350 170" fill="none" xmlns="http://www.w3.org/2000/svg">
<rect x="120" width="110" height="110" rx="55" fill="#E4E4E4"/>
<path d="M165.395 48.7168H163.451C159.212 48.7168 155.774 52.1543 155.774 56.3938V66.5501C155.774 70.7876 159.212 74.2251 163.451 74.2251H186.639C190.879 74.2251 194.316 70.7876 194.316 66.5501V56.373C194.316 52.1459 190.889 48.7168 186.662 48.7168H184.697" stroke="#130F26" stroke-width="3" stroke-linecap="round" stroke-linejoin="round"/>
<path d="M175.045 34.5638V59.6492" stroke="#130F26" stroke-width="3" stroke-linecap="round" stroke-linejoin="round"/>
<path d="M168.972 40.6643L175.045 34.5643L181.12 40.6643" stroke="#130F26" stroke-width="3" stroke-linecap="round" stroke-linejoin="round"/>
<path d="M0.6 148H6.5C7.98 148 9.29333 148.293 10.44 148.88C11.5867 149.467 12.4733 150.293 13.1 151.36C13.74 152.413 14.06 153.627 14.06 155C14.06 156.373 13.74 157.593 13.1 158.66C12.4733 159.713 11.5867 160.533 10.44 161.12C9.29333 161.707 7.98 162 6.5 162H0.6V148ZM6.38 160.26C7.51333 160.26 8.50667 160.04 9.36 159.6C10.2267 159.16 10.8933 158.547 11.36 157.76C11.8267 156.96 12.06 156.04 12.06 155C12.06 153.96 11.8267 153.047 11.36 152.26C10.8933 151.46 10.2267 150.84 9.36 150.4C8.50667 149.96 7.51333 149.74 6.38 149.74H2.6V160.26H6.38ZM18.6834 153.18C19.0168 152.567 19.5101 152.1 20.1634 151.78C20.8168 151.46 21.6101 151.3 22.5434 151.3V153.16C22.4368 153.147 22.2901 153.14 22.1034 153.14C21.0634 153.14 20.2434 153.453 19.6434 154.08C19.0568 154.693 18.7634 155.573 18.7634 156.72V162H16.8434V151.4H18.6834V153.18ZM28.7503 151.3C30.217 151.3 31.337 151.66 32.1103 152.38C32.897 153.1 33.2903 154.173 33.2903 155.6V162H31.4703V160.6C31.1503 161.093 30.6903 161.473 30.0903 161.74C29.5036 161.993 28.8036 162.12 27.9903 162.12C26.8036 162.12 25.8503 161.833 25.1303 161.26C24.4236 160.687 24.0703 159.933 24.0703 159C24.0703 158.067 24.4103 157.32 25.0903 156.76C25.7703 156.187 26.8503 155.9 28.3303 155.9H31.3703V155.52C31.3703 154.693 31.1303 154.06 30.6503 153.62C30.1703 153.18 29.4636 152.96 28.5303 152.96C27.9036 152.96 27.2903 153.067 26.6903 153.28C26.0903 153.48 25.5836 153.753 25.1703 154.1L24.3703 152.66C24.917 152.22 25.5703 151.887 26.3303 151.66C27.0903 151.42 27.897 151.3 28.7503 151.3ZM28.3103 160.64C29.0436 160.64 29.677 160.48 30.2103 160.16C30.7436 159.827 31.1303 159.36 31.3703 158.76V157.28H28.4103C26.7836 157.28 25.9703 157.827 25.9703 158.92C25.9703 159.453 26.177 159.873 26.5903 160.18C27.0036 160.487 27.577 160.64 28.3103 160.64ZM47.042 151.4V160.56C47.042 162.413 46.582 163.78 45.662 164.66C44.742 165.553 43.3687 166 41.542 166C40.542 166 39.5887 165.86 38.682 165.58C37.7754 165.313 37.042 164.927 36.482 164.42L37.402 162.94C37.8954 163.367 38.502 163.7 39.222 163.94C39.9554 164.193 40.7087 164.32 41.482 164.32C42.722 164.32 43.6354 164.027 44.222 163.44C44.822 162.853 45.122 161.96 45.122 160.76V159.92C44.6687 160.467 44.1087 160.88 43.442 161.16C42.7887 161.427 42.0754 161.56 41.302 161.56C40.2887 161.56 39.3687 161.347 38.542 160.92C37.7287 160.48 37.0887 159.873 36.622 159.1C36.1554 158.313 35.922 157.42 35.922 156.42C35.922 155.42 36.1554 154.533 36.622 153.76C37.0887 152.973 37.7287 152.367 38.542 151.94C39.3687 151.513 40.2887 151.3 41.302 151.3C42.102 151.3 42.842 151.447 43.522 151.74C44.2154 152.033 44.782 152.467 45.222 153.04V151.4H47.042ZM41.522 159.88C42.2154 159.88 42.8354 159.733 43.382 159.44C43.942 159.147 44.3754 158.74 44.682 158.22C45.002 157.687 45.162 157.087 45.162 156.42C45.162 155.393 44.822 154.567 44.142 153.94C43.462 153.3 42.5887 152.98 41.522 152.98C40.442 152.98 39.562 153.3 38.882 153.94C38.202 154.567 37.862 155.393 37.862 156.42C37.862 157.087 38.0154 157.687 38.322 158.22C38.642 158.74 39.0754 159.147 39.622 159.44C40.182 159.733 40.8154 159.88 41.522 159.88ZM59.9417 151.3C61.4084 151.3 62.5284 151.66 63.3017 152.38C64.0884 153.1 64.4817 154.173 64.4817 155.6V162H62.6617V160.6C62.3417 161.093 61.8817 161.473 61.2817 161.74C60.6951 161.993 59.9951 162.12 59.1817 162.12C57.9951 162.12 57.0417 161.833 56.3217 161.26C55.6151 160.687 55.2617 159.933 55.2617 159C55.2617 158.067 55.6017 157.32 56.2817 156.76C56.9617 156.187 58.0417 155.9 59.5217 155.9H62.5617V155.52C62.5617 154.693 62.3217 154.06 61.8417 153.62C61.3617 153.18 60.6551 152.96 59.7217 152.96C59.0951 152.96 58.4817 153.067 57.8817 153.28C57.2817 153.48 56.7751 153.753 56.3617 154.1L55.5617 152.66C56.1084 152.22 56.7617 151.887 57.5217 151.66C58.2817 151.42 59.0884 151.3 59.9417 151.3ZM59.5017 160.64C60.2351 160.64 60.8684 160.48 61.4017 160.16C61.9351 159.827 62.3217 159.36 62.5617 158.76V157.28H59.6017C57.9751 157.28 57.1617 157.827 57.1617 158.92C57.1617 159.453 57.3684 159.873 57.7817 160.18C58.1951 160.487 58.7684 160.64 59.5017 160.64ZM73.6948 151.3C75.0415 151.3 76.1082 151.693 76.8948 152.48C77.6948 153.253 78.0948 154.393 78.0948 155.9V162H76.1748V156.12C76.1748 155.093 75.9282 154.32 75.4348 153.8C74.9415 153.28 74.2348 153.02 73.3148 153.02C72.2748 153.02 71.4548 153.327 70.8548 153.94C70.2548 154.54 69.9548 155.407 69.9548 156.54V162H68.0348V151.4H69.8748V153C70.2615 152.453 70.7815 152.033 71.4348 151.74C72.1015 151.447 72.8548 151.3 73.6948 151.3ZM91.7067 147.16V162H89.8667V160.32C89.4401 160.907 88.9001 161.353 88.2467 161.66C87.5934 161.967 86.8734 162.12 86.0867 162.12C85.0601 162.12 84.1401 161.893 83.3267 161.44C82.5134 160.987 81.8734 160.353 81.4067 159.54C80.9534 158.713 80.7267 157.767 80.7267 156.7C80.7267 155.633 80.9534 154.693 81.4067 153.88C81.8734 153.067 82.5134 152.433 83.3267 151.98C84.1401 151.527 85.0601 151.3 86.0867 151.3C86.8467 151.3 87.5467 151.447 88.1867 151.74C88.8267 152.02 89.3601 152.44 89.7867 153V147.16H91.7067ZM86.2467 160.44C86.9134 160.44 87.5201 160.287 88.0667 159.98C88.6134 159.66 89.0401 159.22 89.3467 158.66C89.6534 158.087 89.8067 157.433 89.8067 156.7C89.8067 155.967 89.6534 155.32 89.3467 154.76C89.0401 154.187 88.6134 153.747 88.0667 153.44C87.5201 153.133 86.9134 152.98 86.2467 152.98C85.5667 152.98 84.9534 153.133 84.4067 153.44C83.8734 153.747 83.4467 154.187 83.1267 154.76C82.8201 155.32 82.6667 155.967 82.6667 156.7C82.6667 157.433 82.8201 158.087 83.1267 158.66C83.4467 159.22 83.8734 159.66 84.4067 159.98C84.9534 160.287 85.5667 160.44 86.2467 160.44ZM100.991 148H106.891C108.371 148 109.684 148.293 110.831 148.88C111.977 149.467 112.864 150.293 113.491 151.36C114.131 152.413 114.451 153.627 114.451 155C114.451 156.373 114.131 157.593 113.491 158.66C112.864 159.713 111.977 160.533 110.831 161.12C109.684 161.707 108.371 162 106.891 162H100.991V148ZM106.771 160.26C107.904 160.26 108.897 160.04 109.751 159.6C110.617 159.16 111.284 158.547 111.751 157.76C112.217 156.96 112.451 156.04 112.451 155C112.451 153.96 112.217 153.047 111.751 152.26C111.284 151.46 110.617 150.84 109.751 150.4C108.897 149.96 107.904 149.74 106.771 149.74H102.991V160.26H106.771ZM119.074 153.18C119.407 152.567 119.901 152.1 120.554 151.78C121.207 151.46 122.001 151.3 122.934 151.3V153.16C122.827 153.147 122.681 153.14 122.494 153.14C121.454 153.14 120.634 153.453 120.034 154.08C119.447 154.693 119.154 155.573 119.154 156.72V162H117.234V151.4H119.074V153.18ZM129.743 162.12C128.689 162.12 127.743 161.887 126.903 161.42C126.063 160.953 125.403 160.313 124.923 159.5C124.456 158.673 124.223 157.74 124.223 156.7C124.223 155.66 124.456 154.733 124.923 153.92C125.403 153.093 126.063 152.453 126.903 152C127.743 151.533 128.689 151.3 129.743 151.3C130.796 151.3 131.736 151.533 132.563 152C133.403 152.453 134.056 153.093 134.523 153.92C135.003 154.733 135.243 155.66 135.243 156.7C135.243 157.74 135.003 158.673 134.523 159.5C134.056 160.313 133.403 160.953 132.563 161.42C131.736 161.887 130.796 162.12 129.743 162.12ZM129.743 160.44C130.423 160.44 131.029 160.287 131.563 159.98C132.109 159.66 132.536 159.22 132.843 158.66C133.149 158.087 133.303 157.433 133.303 156.7C133.303 155.967 133.149 155.32 132.843 154.76C132.536 154.187 132.109 153.747 131.563 153.44C131.029 153.133 130.423 152.98 129.743 152.98C129.063 152.98 128.449 153.133 127.903 153.44C127.369 153.747 126.943 154.187 126.623 154.76C126.316 155.32 126.163 155.967 126.163 156.7C126.163 157.433 126.316 158.087 126.623 158.66C126.943 159.22 127.369 159.66 127.903 159.98C128.449 160.287 129.063 160.44 129.743 160.44ZM143.518 151.3C144.545 151.3 145.465 151.527 146.278 151.98C147.091 152.433 147.725 153.067 148.178 153.88C148.645 154.693 148.878 155.633 148.878 156.7C148.878 157.767 148.645 158.713 148.178 159.54C147.725 160.353 147.091 160.987 146.278 161.44C145.465 161.893 144.545 162.12 143.518 162.12C142.758 162.12 142.058 161.973 141.418 161.68C140.791 161.387 140.258 160.96 139.818 160.4V165.88H137.898V151.4H139.738V153.08C140.165 152.493 140.705 152.053 141.358 151.76C142.011 151.453 142.731 151.3 143.518 151.3ZM143.358 160.44C144.038 160.44 144.645 160.287 145.178 159.98C145.725 159.66 146.151 159.22 146.458 158.66C146.778 158.087 146.938 157.433 146.938 156.7C146.938 155.967 146.778 155.32 146.458 154.76C146.151 154.187 145.725 153.747 145.178 153.44C144.645 153.133 144.038 152.98 143.358 152.98C142.691 152.98 142.085 153.14 141.538 153.46C141.005 153.767 140.578 154.2 140.258 154.76C139.951 155.32 139.798 155.967 139.798 156.7C139.798 157.433 139.951 158.087 140.258 158.66C140.565 159.22 140.991 159.66 141.538 159.98C142.085 160.287 142.691 160.44 143.358 160.44ZM151.777 159.38C152.15 159.38 152.457 159.513 152.697 159.78C152.95 160.033 153.077 160.353 153.077 160.74C153.077 160.94 153.05 161.133 152.997 161.32C152.957 161.507 152.87 161.793 152.737 162.18L151.797 164.96H150.537L151.277 161.98C151.023 161.887 150.817 161.733 150.657 161.52C150.51 161.293 150.437 161.033 150.437 160.74C150.437 160.34 150.563 160.013 150.817 159.76C151.07 159.507 151.39 159.38 151.777 159.38ZM165.739 162.12C164.686 162.12 163.739 161.887 162.899 161.42C162.059 160.953 161.399 160.313 160.919 159.5C160.452 158.673 160.219 157.74 160.219 156.7C160.219 155.66 160.452 154.733 160.919 153.92C161.399 153.093 162.059 152.453 162.899 152C163.739 151.533 164.686 151.3 165.739 151.3C166.792 151.3 167.732 151.533 168.559 152C169.399 152.453 170.052 153.093 170.519 153.92C170.999 154.733 171.239 155.66 171.239 156.7C171.239 157.74 170.999 158.673 170.519 159.5C170.052 160.313 169.399 160.953 168.559 161.42C167.732 161.887 166.792 162.12 165.739 162.12ZM165.739 160.44C166.419 160.44 167.026 160.287 167.559 159.98C168.106 159.66 168.532 159.22 168.839 158.66C169.146 158.087 169.299 157.433 169.299 156.7C169.299 155.967 169.146 155.32 168.839 154.76C168.532 154.187 168.106 153.747 167.559 153.44C167.026 153.133 166.419 152.98 165.739 152.98C165.059 152.98 164.446 153.133 163.899 153.44C163.366 153.747 162.939 154.187 162.619 154.76C162.312 155.32 162.159 155.967 162.159 156.7C162.159 157.433 162.312 158.087 162.619 158.66C162.939 159.22 163.366 159.66 163.899 159.98C164.446 160.287 165.059 160.44 165.739 160.44ZM175.734 153.18C176.068 152.567 176.561 152.1 177.214 151.78C177.868 151.46 178.661 151.3 179.594 151.3V153.16C179.488 153.147 179.341 153.14 179.154 153.14C178.114 153.14 177.294 153.453 176.694 154.08C176.108 154.693 175.814 155.573 175.814 156.72V162H173.894V151.4H175.734V153.18ZM279.095 151.4L273.955 163.06C273.501 164.14 272.968 164.9 272.355 165.34C271.755 165.78 271.028 166 270.175 166C269.655 166 269.148 165.913 268.655 165.74C268.175 165.58 267.775 165.34 267.455 165.02L268.275 163.58C268.821 164.1 269.455 164.36 270.175 164.36C270.641 164.36 271.028 164.233 271.335 163.98C271.655 163.74 271.941 163.32 272.195 162.72L272.535 161.98L267.855 151.4H269.855L273.555 159.88L277.215 151.4H279.095ZM285.133 162.12C284.08 162.12 283.133 161.887 282.293 161.42C281.453 160.953 280.793 160.313 280.313 159.5C279.847 158.673 279.613 157.74 279.613 156.7C279.613 155.66 279.847 154.733 280.313 153.92C280.793 153.093 281.453 152.453 282.293 152C283.133 151.533 284.08 151.3 285.133 151.3C286.187 151.3 287.127 151.533 287.953 152C288.793 152.453 289.447 153.093 289.913 153.92C290.393 154.733 290.633 155.66 290.633 156.7C290.633 157.74 290.393 158.673 289.913 159.5C289.447 160.313 288.793 160.953 287.953 161.42C287.127 161.887 286.187 162.12 285.133 162.12ZM285.133 160.44C285.813 160.44 286.42 160.287 286.953 159.98C287.5 159.66 287.927 159.22 288.233 158.66C288.54 158.087 288.693 157.433 288.693 156.7C288.693 155.967 288.54 155.32 288.233 154.76C287.927 154.187 287.5 153.747 286.953 153.44C286.42 153.133 285.813 152.98 285.133 152.98C284.453 152.98 283.84 153.133 283.293 153.44C282.76 153.747 282.333 154.187 282.013 154.76C281.707 155.32 281.553 155.967 281.553 156.7C281.553 157.433 281.707 158.087 282.013 158.66C282.333 159.22 282.76 159.66 283.293 159.98C283.84 160.287 284.453 160.44 285.133 160.44ZM303.169 151.4V162H301.349V160.4C300.962 160.947 300.449 161.373 299.809 161.68C299.182 161.973 298.495 162.12 297.749 162.12C296.335 162.12 295.222 161.733 294.409 160.96C293.595 160.173 293.189 159.02 293.189 157.5V151.4H295.109V157.28C295.109 158.307 295.355 159.087 295.849 159.62C296.342 160.14 297.049 160.4 297.969 160.4C298.982 160.4 299.782 160.093 300.369 159.48C300.955 158.867 301.249 158 301.249 156.88V151.4H303.169ZM308.664 153.18C308.997 152.567 309.491 152.1 310.144 151.78C310.797 151.46 311.591 151.3 312.524 151.3V153.16C312.417 153.147 312.271 153.14 312.084 153.14C311.044 153.14 310.224 153.453 309.624 154.08C309.037 154.693 308.744 155.573 308.744 156.72V162H306.824V151.4H308.664V153.18ZM324.278 148.62C323.131 148.62 322.558 149.24 322.558 150.48V151.4H325.638V152.98H322.598V162H320.678V152.98H318.878V151.4H320.678V150.46C320.678 149.407 320.985 148.573 321.598 147.96C322.211 147.347 323.071 147.04 324.178 147.04C324.605 147.04 325.005 147.093 325.378 147.2C325.751 147.307 326.071 147.46 326.338 147.66L325.758 149.12C325.318 148.787 324.825 148.62 324.278 148.62ZM329.058 151.4H330.978V162H329.058V151.4ZM330.018 149.36C329.645 149.36 329.331 149.24 329.078 149C328.838 148.76 328.718 148.467 328.718 148.12C328.718 147.773 328.838 147.48 329.078 147.24C329.331 146.987 329.645 146.86 330.018 146.86C330.391 146.86 330.698 146.98 330.938 147.22C331.191 147.447 331.318 147.733 331.318 148.08C331.318 148.44 331.191 148.747 330.938 149C330.698 149.24 330.391 149.36 330.018 149.36ZM334.636 147.16H336.556V162H334.636V147.16ZM349.802 156.76C349.802 156.907 349.789 157.1 349.762 157.34H341.162C341.282 158.273 341.689 159.027 342.382 159.6C343.089 160.16 343.962 160.44 345.002 160.44C346.269 160.44 347.289 160.013 348.062 159.16L349.122 160.4C348.642 160.96 348.042 161.387 347.322 161.68C346.616 161.973 345.822 162.12 344.942 162.12C343.822 162.12 342.829 161.893 341.962 161.44C341.096 160.973 340.422 160.327 339.942 159.5C339.476 158.673 339.242 157.74 339.242 156.7C339.242 155.673 339.469 154.747 339.922 153.92C340.389 153.093 341.022 152.453 341.822 152C342.636 151.533 343.549 151.3 344.562 151.3C345.576 151.3 346.476 151.533 347.262 152C348.062 152.453 348.682 153.093 349.122 153.92C349.576 154.747 349.802 155.693 349.802 156.76ZM344.562 152.92C343.642 152.92 342.869 153.2 342.242 153.76C341.629 154.32 341.269 155.053 341.162 155.96H347.962C347.856 155.067 347.489 154.34 346.862 153.78C346.249 153.207 345.482 152.92 344.562 152.92Z" fill="black"/>
<path d="M193.448 151.08C194.448 151.08 195.355 151.313 196.168 151.78C196.995 152.233 197.642 152.88 198.108 153.72C198.575 154.547 198.808 155.513 198.808 156.62C198.808 157.727 198.575 158.7 198.108 159.54C197.642 160.367 196.995 161.013 196.168 161.48C195.355 161.933 194.448 162.16 193.448 162.16C191.968 162.16 190.842 161.693 190.068 160.76V162H187.088V147.16H190.208V152.38C190.995 151.513 192.075 151.08 193.448 151.08ZM192.908 159.6C193.708 159.6 194.362 159.333 194.868 158.8C195.388 158.253 195.648 157.527 195.648 156.62C195.648 155.713 195.388 154.993 194.868 154.46C194.362 153.913 193.708 153.64 192.908 153.64C192.108 153.64 191.448 153.913 190.928 154.46C190.422 154.993 190.168 155.713 190.168 156.62C190.168 157.527 190.422 158.253 190.928 158.8C191.448 159.333 192.108 159.6 192.908 159.6ZM203.877 152.66C204.25 152.14 204.75 151.747 205.377 151.48C206.017 151.213 206.75 151.08 207.577 151.08V153.96C207.23 153.933 206.997 153.92 206.877 153.92C205.984 153.92 205.284 154.173 204.777 154.68C204.27 155.173 204.017 155.92 204.017 156.92V162H200.897V151.24H203.877V152.66ZM214.455 162.16C213.321 162.16 212.301 161.927 211.395 161.46C210.501 160.98 209.801 160.32 209.295 159.48C208.788 158.64 208.535 157.687 208.535 156.62C208.535 155.553 208.788 154.6 209.295 153.76C209.801 152.92 210.501 152.267 211.395 151.8C212.301 151.32 213.321 151.08 214.455 151.08C215.588 151.08 216.601 151.32 217.495 151.8C218.388 152.267 219.088 152.92 219.595 153.76C220.101 154.6 220.355 155.553 220.355 156.62C220.355 157.687 220.101 158.64 219.595 159.48C219.088 160.32 218.388 160.98 217.495 161.46C216.601 161.927 215.588 162.16 214.455 162.16ZM214.455 159.6C215.255 159.6 215.908 159.333 216.415 158.8C216.935 158.253 217.195 157.527 217.195 156.62C217.195 155.713 216.935 154.993 216.415 154.46C215.908 153.913 215.255 153.64 214.455 153.64C213.655 153.64 212.995 153.913 212.475 154.46C211.955 154.993 211.695 155.713 211.695 156.62C211.695 157.527 211.955 158.253 212.475 158.8C212.995 159.333 213.655 159.6 214.455 159.6ZM239.427 151.24L235.527 162H232.527L230.107 155.32L227.607 162H224.607L220.727 151.24H223.667L226.207 158.52L228.847 151.24H231.487L234.047 158.52L236.667 151.24H239.427ZM244.341 162.16C243.448 162.16 242.575 162.053 241.721 161.84C240.868 161.613 240.188 161.333 239.681 161L240.721 158.76C241.201 159.067 241.781 159.32 242.461 159.52C243.141 159.707 243.808 159.8 244.461 159.8C245.781 159.8 246.441 159.473 246.441 158.82C246.441 158.513 246.261 158.293 245.901 158.16C245.541 158.027 244.988 157.913 244.241 157.82C243.361 157.687 242.635 157.533 242.061 157.36C241.488 157.187 240.988 156.88 240.561 156.44C240.148 156 239.941 155.373 239.941 154.56C239.941 153.88 240.135 153.28 240.521 152.76C240.921 152.227 241.495 151.813 242.241 151.52C243.001 151.227 243.895 151.08 244.921 151.08C245.681 151.08 246.435 151.167 247.181 151.34C247.941 151.5 248.568 151.727 249.061 152.02L248.021 154.24C247.075 153.707 246.041 153.44 244.921 153.44C244.255 153.44 243.755 153.533 243.421 153.72C243.088 153.907 242.921 154.147 242.921 154.44C242.921 154.773 243.101 155.007 243.461 155.14C243.821 155.273 244.395 155.4 245.181 155.52C246.061 155.667 246.781 155.827 247.341 156C247.901 156.16 248.388 156.46 248.801 156.9C249.215 157.34 249.421 157.953 249.421 158.74C249.421 159.407 249.221 160 248.821 160.52C248.421 161.04 247.835 161.447 247.061 161.74C246.301 162.02 245.395 162.16 244.341 162.16ZM261.886 156.66C261.886 156.7 261.866 156.98 261.826 157.5H253.686C253.833 158.167 254.18 158.693 254.726 159.08C255.273 159.467 255.953 159.66 256.766 159.66C257.326 159.66 257.82 159.58 258.246 159.42C258.686 159.247 259.093 158.98 259.466 158.62L261.126 160.42C260.113 161.58 258.633 162.16 256.686 162.16C255.473 162.16 254.4 161.927 253.466 161.46C252.533 160.98 251.813 160.32 251.306 159.48C250.8 158.64 250.546 157.687 250.546 156.62C250.546 155.567 250.793 154.62 251.286 153.78C251.793 152.927 252.48 152.267 253.346 151.8C254.226 151.32 255.206 151.08 256.286 151.08C257.34 151.08 258.293 151.307 259.146 151.76C260 152.213 260.666 152.867 261.146 153.72C261.64 154.56 261.886 155.54 261.886 156.66ZM256.306 153.44C255.6 153.44 255.006 153.64 254.526 154.04C254.046 154.44 253.753 154.987 253.646 155.68H258.946C258.84 155 258.546 154.46 258.066 154.06C257.586 153.647 257 153.44 256.306 153.44Z" fill="#5C31B7"/>
</svg>
